<?xml version="1.0" encoding="utf-8"?>
<!-- Generator: Adobe Illustrator 24.0.2, SVG Export Plug-In . SVG Version: 6.00 Build 0)  -->
<svg version="1.1" id="Capa_1" xmlns="http://www.w3.org/2000/svg" xmlns:xlink="http://www.w3.org/1999/xlink" x="0px" y="0px"
	 viewBox="0 0 401.2 385" style="enable-background:new 0 0 401.2 385;" xml:space="preserve">
<style type="text/css">
	.st0{fill:#951717;}
	.st1{fill:#BCBDC3;}
	.st2{fill:#9C9DA3;}
	.st3{fill:#B2B3B9;}
	.st4{fill:#94959A;}
	.st5{fill:#A2A3A9;}
	.st6{fill:#ADAEB4;}
	.st7{fill:#8F9096;}
	.st8{fill:#A5A6AB;}
	.st9{fill:#DAD7D9;}
	.st10{fill:#4A3428;}
	.st11{fill:#3B281D;}
	.st12{fill:#321F13;}
	.st13{fill:#3D291D;}
	.st14{fill:#737377;}
	.st15{fill:#261408;}
	.st16{fill:#CDCDCD;}
	.st17{fill:#CECECE;}
	.st18{fill:#402D21;}
	.st19{fill:#2E1E14;}
	.st20{fill:#BBBBBB;}
	.st21{fill:#3E2A1F;}
	.st22{fill:#BCBCBD;}
	.st23{fill:#5A4438;}
	.st24{fill:#2B1C12;}
	.st25{fill:#ACACAC;}
	.st26{fill:#A8A8A8;}
	.st27{fill:#DFBAA7;}
	.st28{fill:#E0B9A6;}
	.st29{fill:#CDA690;}
	.st30{fill:#24150A;}
	.st31{fill:#CEA892;}
	.st32{fill:#A98169;}
	.st33{fill:#B68F79;}
	.st34{fill:#C8A796;}
	.st35{fill:#C7A592;}
	.st36{fill:#775B4F;}
	.st37{fill:#D6D7DC;}
	.st38{fill:#C0C1C7;}
	.st39{fill:#D4D5DA;}
	.st40{fill:#818287;}
	.st41{fill:#F7D2BF;}
	.st42{fill:#D9B19A;}
	.st43{fill:#D9B19B;}
	.st44{fill:#CCA48C;}
	.st45{fill:#BD947C;}
	.st46{fill:#E7C0AB;}
	.st47{fill:#AE836A;}
	.st48{fill:#EAC4B1;}
	.st49{fill:#CDA48E;}
	.st50{fill:#A0755D;}
	.st51{fill:#C3967E;}
	.st52{fill:#311E12;}
	.st53{fill:#432D20;}
	.st54{fill:#C69E86;}
	.st55{fill:#B38A71;}
	.st56{fill:#63483C;}
	.st57{fill:#2B1609;}
	.st58{fill:#926850;}
	.st59{fill:#321C0E;}
	.st60{fill:#987057;}
	.st61{fill:#664A3E;}
	.st62{fill:#8F664E;}
	.st63{fill:#220D03;}
	.st64{fill:#A9816A;}
	.st65{fill:#321E10;}
	.st66{fill:#A77B62;}
	.st67{fill:#2E190B;}
	.st68{fill:#5C4135;}
	.st69{fill:#8A654E;}
	.st70{fill:#6F5447;}
	.st71{fill:#664B3F;}
	.st72{fill:#543D30;}
	.st73{fill:#E6C0AB;}
	.st74{fill:#EAE7E6;}
	.st75{fill:#EAE8E7;}
	.st76{fill:#E7E5E5;}
	.st77{fill:#A48870;}
	.st78{fill:#C79F88;}
	.st79{fill:#604C40;}
	.st80{fill:#5D473B;}
	.st81{fill:#B28E79;}
	.st82{fill:#857063;}
	.st83{fill:#614C41;}
	.st84{fill:#CAA18B;}
	.st85{fill:#8A7467;}
	.st86{fill:#E3BBA5;}
	.st87{fill:#EAE9E9;}
	.st88{fill:#3B261A;}
	.st89{fill:#442C20;}
	.st90{fill:#FBD7C4;}
	.st91{fill:#2D1B0E;}
	.st92{fill:#4C2F1F;}
	.st93{fill:#DDB8A5;}
	.st94{fill:#C8A08B;}
	.st95{fill:#493226;}
	.st96{fill:#684D40;}
	.st97{fill:#5C4235;}
	.st98{fill:#5A4033;}
	.st99{fill:#EFCAB5;}
	.st100{fill:#DBB49E;}
	.st101{fill:#DBB49F;}
	.st102{fill:#43301B;}
	.st103{fill:#24170F;}
	.st104{fill:#60482A;}
	.st105{fill:#584320;}
	.st106{fill:#A48A73;}
	.st107{fill:#745941;}
	.st108{fill:#907557;}
	.st109{fill:#846A5B;}
	.st110{fill:#41331D;}
	.st111{fill:#23150F;}
	.st112{fill:#584121;}
	.st113{fill:#7E6346;}
	.st114{fill:#59462B;}
	.st115{fill:#74573D;}
	.st116{fill:#030303;}
	.st117{fill:#90644C;}
	.st118{fill:#402A1E;}
	.st119{fill:#CAA58F;}
	.st120{fill:#89644E;}
	.st121{fill:#523A2C;}
	.st122{fill:#361A0B;}
	.st123{fill:#B38872;}
	.st124{fill:#FDD9C6;}
	.st125{fill:#EFEEE8;}
	.st126{fill:#030202;}
	.st127{fill:#826345;}
	.st128{fill:#F8F4ED;}
</style>
<title>image3</title>
<ellipse class="st0" cx="200.6" cy="192" rx="200.6" ry="192"/>
<path class="st1" d="M321.4,242.1c3.3,5.5,2.4,11.2,1.2,17c-1.9-3.1-1.1-6.2-0.6-9.4c-0.7,9-0.5,18-2.5,26.9
	c-1.1,4.9-1.2,9.9-2.9,14.6c-2.4,6.5-5.1,7.6-11.9,6.3c-14-2.6-27.5-7.5-41.8-9.1c-7.7-0.9-14.7-5-22.6-5.9
	c-2.8-0.3-5.5-1.2-8.3-0.8c-1,0.3-2,0.2-3-0.2c-8.5-4.7-18.1-4.7-27.3-6.2c-12.6-2-24.7-6.4-37.4-8.1c-6.5-0.9-12.8-3.3-19.6-3.4
	c-8.1-0.2-15.7-3.1-23.1-5.5c-8.5-2.7-16.9-4-25.5-5.3c-5.5-0.8-9.4-3.9-12.6-8.2c-0.1-1.3,0.6-2.6,1.9-3c8.9-0.8,17.9-0.8,26.9-0.2
	c3.8,0.2,7.6,0.6,11.4,0.6c37.8,0,75.6,0,113.4,0c10.3,0,20.6,2,30.9,0.9c11.8-1.3,23.6-0.6,35.4-0.9
	C309.5,242.3,315.5,243.4,321.4,242.1z"/>
<path class="st2" d="M318.8,324.8l2.9,3c0.3,2.2-1.2,4-1.3,6c-0.5,1.5-0.6,3.2-1,4.8c-1.8,3-1.5,6.1-0.1,9.1
	c0.1,0.5,0.2,0.9,0.3,1.4c0.1,1-0.1,1.9-0.6,2.7c-0.4,0.3-0.8,0.5-1.3,0.7c-1.9,3.8-2.1,8-2.7,12c-0.3,2.8-1.1,5.5-2.4,8.1
	c-0.9,1.7-2,3.4-3.9,3.5c-4.1,0.3-8.5,1.3-12.4,0.3c-11-2.9-22.4-3.1-33.4-5.3c-10.1-2-20.1-4.4-30.1-6.9
	c-9.3-2.3-18.6-5.3-28.4-5.1c-2.4,0-4.7-0.5-6.8-1.5c-8.5-4.2-17.6-4.7-26.7-5.3c-4.7-0.3-8.5-2.7-12.7-4.3
	c-2.4-0.9-4.6-1.8-7.2-1.7c-4.9,0.1-9.6-0.5-13.9-3.1c-1.3-0.7-2.9-1-4.4-0.9c-6.2,0.2-12.1-1.3-18.1-2.4c-5.1-1.1-10-2.5-14.9-4.1
	c-4.6-1.5-7-4-8.3-8.3c-2.2-7.5-3.2-15.3-4.1-23c-0.4-3.6-0.1-7.4-2.4-10.5c-0.1-5.6-0.1-11.2-0.2-16.9c-0.1-2.2-1.9-5.8,1.1-6.2
	c2.8-0.4,2,3.4,2.4,5.5c0.7,2.9,1,5.8,1.1,8.8c0,7.9,2.1,15.4,4.1,23c0.5,2.1,2.2,3.8,4.4,4.2c11.8,3.4,23.8,6,35.9,8
	c7.6,1.2,15.2,2.8,22.8,4.2c10.4,2,20.8,3.9,30.9,7.5c6.1,2.2,12.9,2.5,19.4,3.9c13.6,3,27.4,5.2,41,8.2c13.5,2.9,27,5.2,40.4,8.4
	c5.1,1.3,10.5,1.6,15.5,3.4c4.3,1.6,7.5-0.7,8.3-5.4c1.1-6.6,2.8-13,3.4-19.7C315.5,328.5,315,325.3,318.8,324.8z"/>
<path class="st3" d="M83.7,245c1.9,0,2.9,1.4,4,2.6c1.7,1.9,3.9,3.2,6.4,3.6c5.3,0.9,10.7,1.6,16,2.6c3.7,0.7,7.6-0.3,10.4,3.4
	c1,1.3,2.8,0.8,4.3,0.8c2.2-0.2,4.4,0.1,6.3,1.1c4.6,2.4,9.7,3.7,14.8,3.7c12.6,0.3,24.1,5.9,36.6,6.5c3.5,0.2,6.8,3.1,10.7,3.2
	c7.4,0.3,14.2,5,21.9,2.7c1.4-0.4,2.6,0.5,3.8,1c5.3,2.6,10.8,3.7,16.9,4.4c7.2,0.8,14.9,1.6,21.8,5.5c4.3,2.2,9.1,3.1,13.9,2.7
	c6.7-0.4,12.1,2.8,18.1,4.3s12.1,1.7,17.9,3.8c3,1.1,5.6-0.2,7.1-3.6c2.4-5.2,2-11,4-16.2c1.6,1.6,1.5,3.7,1.4,5.6
	c-0.4,9.6-1.5,19.2-3.3,28.6c-0.7,3.7-4,6.2-8.2,5.8c-7.1-0.7-14.2-1.5-21-4.1c-0.9-0.5-1.8-0.8-2.8-1c-10.1-0.7-19.8-4.1-29.7-5.5
	c-6.2-0.9-12.4-2.3-18.5-3.5c-8.2-1.6-16.3-4.9-24.9-4c-1.9-1.5-4.2-2.1-6.5-2.6c-12.3-1.1-23.3-7.5-35.8-8
	c-6.9-0.3-13.5-3.4-20.5-4.2c-9.6-1.1-18.7-4.8-28.4-6.2c-9.2-1.3-18.2-3.6-26.9-6.9c-3.7-1.4-4.8-4.8-6-8.1
	c-1.3-3.7-0.7-7.6-1.8-11.3c-0.2-0.6,0.1,0.1-0.3-0.4c-0.2-0.2-0.5,0.1-0.4,0.6c-0.3,2.9,0.9,6-1.5,8.5C82.3,255.1,82,250,83.7,245z
	"/>
<path class="st4" d="M84.8,294c4.9,2.3,3.1,7.1,3.7,10.8c1.3,7.6,1.9,15.4,4.2,22.9c1.1,3.5,2.4,7,7.4,6.5c1.6-0.2,3.2,1,4.4,2.2
	c2.1,2.1,4.3,3,7.1,1.6c1.6-0.8,2.9,0,4.2,0.6c4.4,2,9.2,2.9,14,2.5c3.6-0.2,7.1-0.4,10.3,2.4c1.6,1.4,4.8,1.7,7.1,1.5
	c6.8-0.7,12.5,2.2,18.2,5c4.6,2.3,9.8,0.7,14.7,1.9c5.7,1.4,11.7,1.3,17.1,4.4c2.3,1.3,5,1.8,7.6,1.7c9.3-0.5,17.9,2.7,26.7,4.7
	c16.4,3.7,32.5,8.1,49.4,9.7c4.7,0.4,9.8,0.6,14.7,2.5c3.9,1.6,9.2,1.2,13.4,0c3.3-1,3.7-5.6,4.4-9c0.9-4.7,1.4-9.5,2.1-14.2
	c0.1-0.8,0.1-2.3,1.7-1.5c0.3,0.2,0.2,1.2,0.3,1.9c1.8,2.2,1.4,4.6,0.8,7c-1.3,2-1.4,4.3-1.5,6.7c-0.4,10.4-4.7,14.3-15,13.7
	c-0.5,0-1,0-1.5,0c-25.3,0.5-50.6-1.1-75.9-1.2c-14.9-0.1-30-0.1-44.8-2.1c-8.1-1.1-16.7-0.5-24.5-3.9c-2.5-1-5.2-1.4-7.8-1.4
	c-5.8,0.1-11.5-1.7-16.3-4.9c-4.4-2.9-10.4-1.6-15.6-2.2c-4.4-0.5-8.6-1-12.3-3.4c-0.8-0.6-1.7-1.1-2.7-1.3
	c-6.1-0.5-7.8-4.5-8.5-9.9c-0.9-6.6-2.7-13-3.1-19.7c0-1.7-0.8-3.3-2.2-4.3C85,314.7,86.1,304.3,84.8,294z"/>
<path class="st5" d="M318.8,324.8c-3.7,3.8-2,8.8-3,13.2c-1.1,4.5-2,9-2.5,13.6c-0.4,5.3-5.8,7.8-11,5.6c-6.3-2.8-13.4-2.1-19.7-4.4
	c-9-3.3-18.8-2.8-27.9-6c-7.8-2.8-16.4-3.5-24.6-4.8c-9.1-1.4-18-4.1-27-5.5c-4.2-0.7-8.2-3.8-12.8-1.8c-0.6,0.3-1.6-0.3-2.3-0.6
	c-6.7-3.8-14.5-4-21.6-6.2c-7.7-2.3-15.8-3.1-23.6-5.2c-5.6-1.5-12.3-1-18.1-2.9c-7.1-2.3-14.9-1.3-21.5-5.2
	c-0.7-0.5-1.5-0.7-2.4-0.6c-6.9,1.2-8.6-3.2-9.6-8.6c-1.3-6.5-2.9-12.9-3.3-19.5c2.7,0.3,2.6,2.6,3.2,4.4c0.8,2.5,1.3,5.2,2.4,7.6
	c0.8,2,2.7,3.4,4.9,3.6c13,2.3,26,4.7,38.9,7.7c10.6,2.4,21,6.3,32.1,6.8c8.2,0.4,15.8,3.6,23,7.7c0.6,0.4,1.2,0.9,1.7,1.4
	c1.6,2.5,3.4,4.6,6.8,2.6c1.6-0.9,3.5-1.2,5.3-0.7c4.1,1.3,7.1-0.1,9.3-3.6c0.3-0.4,0.7-0.7,1.1-1.1c2.4-4.5,5.5-5.5,10.6-4.1
	c8.3,2.2,17.1,2.8,25.4,4.8c8.6,2.1,17.9,2,26,6.2c1,0.6,2.2,0.9,3.3,1c7.8,0.4,15.4,2.5,23.1,3.8c4.7,0.8,6.4-0.2,7.7-4.8
	c1.8-6.9,3.1-13.9,4-21c0.7-4.3,0.7-8.7,3.7-12.9c0.9,2.2,1,4.6,0.3,6.8l-0.1,2.9c-1.3,5.9,0.5,12-1,17.9
	C319.3,323.5,319,324.2,318.8,324.8z"/>
<path class="st6" d="M320.6,302.1v-5.9c-4.4,6.8-2.5,13.9-4,20.2c-1.3,5.4-1.5,11.1-3.9,16.3c-1.3,2.8-3.3,3.9-5.9,3.1
	c-10.9-3.4-22.7-2-33.2-7.2c-2-1-4.5-0.8-6.8-1.1c-9.2-1.3-18.1-4.3-27.5-4.9c-4.8-0.3-9.4-1.4-13.9-3.1c-4-1.5-5.8-0.9-7.1,2.8
	c-0.2,0.7-1.2,1-1.8,1.6c-1-1.9-1.2-4-2.7-5.8c-1.9-2.2-1.7-4.9-0.9-7.6c1.7-5.5,1.7-5.5-4.1-6.7c-1.4-0.5-1.7-1.6-1.2-2.9
	c0.4-1.4,1.6-2.5,3-2.9c5.3-2.1,10.3-0.1,15.4,1c12.3,2.7,24.7,4.8,36.9,7.3c7.4,1.5,15.3,1.5,22.1,4.1c7.1,2.7,14.3,3.7,21.5,5.1
	c5.7,1.1,8.1-1,9.1-6.5c1.9-10.6,2.9-21.3,2.9-32l2.8-27.9l1.3,0v10c-0.4,13.1-0.8,26.1-1.2,39.2C321.4,299.6,321.5,301,320.6,302.1
	z"/>
<path class="st7" d="M86.7,324.9c1.8-2.1,2.7-1.3,3,1c0.7,4.2,1.4,8.5,1.9,12.7c0.5,4.6,2.1,9,2.4,13.7c0.2,3,1.9,5.4,5.6,4.7
	s4.8,3.7,8.2,4.1c6.4,0.7,12.7,2,19.1,1.9c2.6-0.1,4.8,0.4,6.7,2.5c2.6,2.8,5.9,3.8,9.9,3.7c5.7-0.3,11.3,0.7,16.5,3
	c0.6,0.3,1.3,0.8,1.9,0.7c7.4-1,14.4,1.8,21.6,2.2c25.9,1.4,51.8,1.6,77.7,2.2c12.6,0.3,25.2,0.5,37.9,0.7
	c14.8,0.2,15.2-0.3,16.5-15.2c0.1-1.6,0.4-3,2-3.7c2.5,3,1,6.5,1.4,9.7c-0.4,2.4-0.7,4.9-2.2,7c-4,5.4-9.6,6.5-16,5.8
	c-1.5-0.1-3-0.1-4.5-0.1c-63.4-0.7-126.7-1.3-190.1-0.9c-2.2,0.1-4.3-0.1-6.4-0.5c-6.8-1.6-8.9-4.1-9-11.1c-0.1-3.8-0.4-7.5-1-11.3
	c0.8,6.4,1.3,12.7,1.4,19.1c0,1.3-0.5,2.5-1.4,3.4c-2.2-0.4-2.3-2.2-2.4-3.8c-0.8-13.5-1.4-27-2-40.6c0.1-2.9-0.5-5.9,0.4-8.8
	L86.7,324.9z"/>
<path class="st8" d="M192.5,325c-7.6-3.1-15.1-7.2-23.5-7.6c-13.2-0.5-25.7-4.9-38.1-8.1c-9.3-2.4-19.2-1.7-27.9-6
	c-0.3-0.2-0.7-0.2-1-0.2c-9.5,1.8-10.9-5-12.3-11.6c-0.4-1.9-0.6-3.9-2.1-5.5c0.3-4.9-1.1-9.6-1.6-15.4c-2,2.7-1.1,4.8-1.5,6.6
	c-1.6-5.6-0.7-11.3-1.1-17c0.1-3.4,0.1-6.8,0.2-10.1c3.3,0.1,2.7,2.6,3,4.7c1.1,8.2,2.4,16.4,4.3,24.5c1.2,5.1,4.1,8,9.6,8.5
	c8.8,0.8,17.2,3,25.7,5.4c7.8,2.2,15.9,4.3,24.3,4.8c6.3,0.3,12.6,2.4,18.7,4.5c2.2,0.7,4.5,1.2,6.8,1.4c8.1,0.9,12.9,5.2,14.4,12.6
	C190.4,319.4,194,321.5,192.5,325z"/>
<path class="st9" d="M321.4,242.1c-3,2.3-6.2,2.4-10.1,2.3c-13.1-0.6-26.2-0.9-39.4,0.2c-7.1,0.5-14.3,0.6-21.4,0.1
	c-2.6-0.1-5.2-0.6-7.9-0.6c-41,0-81.9,0.4-122.9-0.3c-11.4-0.2-22.9,0.6-34.2-1.7c3.3-3.8,7.7-1.1,11.5-2c1.8-0.4,4.4,1.5,5.4-1.7
	c2.1-2.3,5-1.5,7.6-1.6h2.6c2-0.1,3.9,0,5.9,0c1.4,0,2.8,0,4.2,0c1.9,0,3.9-0.1,5.8,0c1.4,0,2.8-0.1,4.2,0c1.1-0.1,2.3,0,3.4,0
	c2.3-0.1,4.6,0,7,0c3.3-0.3,6.7,0.1,10-0.1c11.1,0.1,22.1-0.3,33.2,0.2c5.3,1.4,10.5,0,15.7-0.2c6.4-0.2,12.8,1.6,19.2,0.2
	c13.4-0.4,26.8-0.3,40.1-0.1c9-0.1,17.8,1.8,26.8,1.1c2-0.1,4,0.1,6-0.4c1.4-0.4,2.9-0.6,4.4-0.5c2.3,0.1,4.8-0.4,6.1,2.3
	c3.3,2.3,6.9,0.7,10.4,1C317.2,240.2,319.8,239.7,321.4,242.1z"/>
<path class="st10" d="M285.5,74.1c0.3,4.8,4.4,7.2,6.8,10.6c3.4,4.9,6.9,9.8,9,15.4c0.6,7.6,1.4,15.2,0.8,22.7
	c-0.6,7.3-2.8,14.6-4.6,21.8c-1.4,8-6.6,14.6-8.3,22.5c-1,1.9-2.1,3.7-3.2,5.5c-1.8,2.8-4,4.4-7.4,3c-2.7-1.6-1.8-4.8-3.1-7
	c-0.7-1.2-0.4-2.8,0.7-3.6c2.6-2.7,2.7-6.4,3.4-9.7c1.5-8.4,1.4-16.9-0.4-25.3c-1.5-7.8-1-15.9-1.9-23.9c-0.5-4.8-0.2-9.6-0.9-14.4
	c-0.5-3.7-0.6-7.5,4.6-8.2c-0.9-2.2-3-3.2-3-5.5c1.2-3.1,4.3-3.3,6.9-4.2L285.5,74.1z"/>
<path class="st11" d="M90.9,128c0.1-6.2,1.5-12.3,4.1-17.9c0.5,0,1.1-0.2,1.4,0.2c3,3,5.6,6.5,11,4.4c1.9-0.7,2.5,2.2,2.3,4.1
	c-0.4,2.6-0.4,5.3-0.6,7.9c-1.4,14.4,2.1,27.9,6.9,41.2c0,6.9,0.1,13.8-0.5,20.8c-0.5,5.7,0.1,11.3-1.3,17.1
	c-1.1,4.7-3.1,6.1-7.3,5.8c-1.1-0.2-2-1.1-2.1-2.2c-0.4-2.1-0.3-4.2-0.7-6.3c-0.1-0.8,0-1.6,0.2-2.4c1.3-10.1-0.1-20.1-2.5-29.7
	c-3.4-13.7-6-27.6-9.8-41.2C91.6,129.1,91.3,128.5,90.9,128z"/>
<path class="st12" d="M108.7,93.2c-0.7-4-3.5-5.1-7.1-5.3c-1.1,0-2.5,0.9-3.1-0.5s0.5-2.4,1.3-3.5c2.7-3.7,6.6-4.6,10.8-4.9
	c1.9-0.2,3.9-0.1,5.9-0.1c4.1-1.3,5,1.9,5.7,4.4c1.6,5.6,5.1,10,8.7,14.3c2.2,2.7,4.7,3.5,8.3,2.9c8.8-1.6,17.3-0.4,25.8,2.5
	c6,2.3,11.9,4.9,17.5,8c9.4,5,16.1,12.9,22.4,21.2c1.7,2.2,3.7,4.2,5.2,6.6c0.9,1.5,2.6,2.7,1.8,4.9c-2.3,1.2-3.7-0.4-4.9-1.9
	c-1.6-1.8-3.2-3.6-5-5.3c-6-6.4-12.9-12-20.5-16.6c-1.3-0.8-2.7-1.3-3.5-2.7c-2.4-3.4-6.4-4.1-9.9-5.4c-8-3.1-16.3-5.7-25.2-3.6
	c-3.9,0.9-6.8,2.5-8.1,6.4c-0.6,1.7-1.3,3.6-2.7,4.7c-6.3,4.9-8.1,12.3-10.6,19.3c-1.6,2.5-2.5,5.5-5.9,6.3
	c-1.6-7.5,0.8-14.1,5.5-19.7c7.1-8.4,7.1-8.1,1-17c-3.2-4.6-7-8.7-11.5-12.1C109.5,95.6,108.2,94.8,108.7,93.2z"/>
<path class="st13" d="M296.5,145c-0.1-6,2-11.7,3.4-17.3c1.9-7.6,0-15,0.5-22.5c0.1-1.8-0.2-3.6,1-5.1c4.2,8.2,7.3,16.9,9,26
	c-0.7,1.1-1,2.5-0.7,3.8c3.7,13.7-0.2,26.9-2.9,40.1c-1.5,7.3-2.4,14.7-3.7,22c-0.5,1.8-0.1,3.7,1,5.2c0.9,2.1-0.3,4.1-0.1,6.2
	c-0.1,2.7-1.1,5.3-1.1,8c-1.5,3.5,0.8,8-3,10.8c-2.2-1.6-2.5-4.1-2.4-6.3c0.3-12.6-3-25.2,0.7-37.8c-2.1,3.2-3.8,6.8-5,10.4
	c-0.3,0.5-0.8,0.7-1.4,0.7c-1-0.5-1.7-1.4-2-2.5c-1.1-8.4,0.9-16.5,3.1-24.5C294.3,156.6,297,151.2,296.5,145z"/>
<path class="st14" d="M89.6,379.9l0.1-2.9c0.5-0.5,1.2-0.6,1.9-0.4c6.6,4.2,13.9,3.8,21.2,3.8c14.8,0.1,29.6-0.4,44.4-0.5
	c25.9-0.1,51.8,0.1,77.7,0.6c22.6,0.4,45.2-0.3,67.8,0.5c4.5,0.2,8.9-0.6,12.5-3.7c2.4,2.6,2.3,3.2-1.9,6.4
	c-2.3,0.9-4.8,1.3-7.3,1.1c-68.7,0-137.3,0-206,0c-2.5,0.1-5-0.3-7.3-1.1C91.3,382.8,89,382.6,89.6,379.9z"/>
<path class="st10" d="M108.7,93.2c7.9,5.1,12.8,13,18.7,20c3.4,4.1,0.8,7.1-1.9,9.3c-7.2,5.9-8.9,14-9.8,22.5
	c1.6,1.6,1.4,3.6,1.3,5.6c-0.2,7.9,2.4,15.1,5.5,22.2c1.6,1.5,1.5,3.2,0.7,5c-0.5,0.6-1.3,0.9-2.1,0.8c-2.1-0.6-3.1-2.4-4.1-4.2
	c-0.9-2.1-1.4-4.3-2.4-6.4c-5.5-13.6-8.3-27.6-7-42.4c0.2-2.3,0.1-4.6,0.9-6.9c0.4-1,0.5-2.4-0.5-3.2s-2.1,0-3.1,0.7
	c-3.1,2.3-5.4,2.3-6.3-2.1c-0.4-1.8-2.1-2.9-3.5-4C97.2,102.6,102.2,97.4,108.7,93.2z"/>
<path class="st10" d="M132.6,57.1c4.8-5.3,10.1-10.1,15.8-14.3c1.1-1,2.5-1.6,4-1.8c0.8-0.4,1.6-0.7,2.1,0.3c0.4,0.8,0,1.7-0.8,2.1
	c-2.2,1.4-4.6,2.5-7,3.5c7.5-3.5,14.9-7.3,22.9-9.7c7.6-2.3,15.5-3.7,23.1-6.1c2-0.6,4.7-1.5,6.2,1.3c-0.8,3.5-4,2.6-7.1,3.6
	c18.1-1.6,34,2.8,48.9,11.1c1.4,1.1,3,1.9,4.4,3c1,0.8,2.6,1.6,1.2,3.4c-2.4,0.6-4.3-0.6-6.1-1.7c-18.1-10.5-38-11.5-58-10.1
	c-10.3,0.7-19.7,5.6-28.6,10.8c-3.1,0.9-5.7,3-8.5,4.5c-5.5,3.5-10.5,7.5-13.3,13.7c-1.6,3.3-1.6,7.2,0,10.5
	c3.9,8.8,9.7,14.6,20.2,13.8c1.5,0.4,3,0.7,4,2.1c-1.2,3-3.8,2.2-6,2c-3.3-0.3-6.6-0.7-9.9-0.9c-3.9-0.1-7.5-2.2-9.4-5.6
	c-1.3-2.1-2.6-4.2-3.8-6.4c-2.7-5.2-3.1-10.3-0.5-15.7C128.4,66,131.3,61.9,132.6,57.1z"/>
<path class="st15" d="M240.5,48.1c-8.3-3.5-16.3-7.8-25.3-9.6c-8.5-1.7-17.1-1.4-25.9-1.4c0.7-2.8,2.6-2.9,4.6-2.9s3.7,0.1,4.7-2
	c8.4-3.6,16.8-7.3,25.9-9c0.3,4-2.3,7.1-3.1,10.8c-0.4,1.7-0.9,3.3,0.7,4.5c1.4,1.1,2.4-0.4,3.5-0.9c5.1-2.2,8-6.5,10.2-11.4
	c6.4,0.4,15.1,8.8,15.7,15C251.9,46,246.4,49.5,240.5,48.1z"/>
<path class="st16" d="M313.4,383.8c0.8-2.1,3.1-3.4,3-5.9c-0.7-0.9-0.7-2.1,0-3c0.4-2,0.8-4,1.1-6c1.3-5.6-0.4-11.4,1-17
	c0-1,0-2,0-2.9c-0.3-4.2-0.2-8.5,0.5-12.6c1.8-3.8,3.9-3,5.8-0.1c2.9,4.6,5.3,9.5,6,15.1c1.1,7.9,1.9,15.8,3.1,23.6
	c0.9,6.1,1.3,6.3,7.6,6.6c1.6,0.3,3.6-0.2,3.9,2.3L313.4,383.8z"/>
<path class="st17" d="M89.6,379.9l3.1,3.9l-31.1,0c0.7-2.7,3.1-1.9,4.9-2.3c4.6,0.6,6.6-1.7,7.1-6.1c1-8.5,2.1-17.1,3.5-25.6
	c0.8-4.4,2.5-8.6,4.9-12.5c0.9-1.6,1.9-3.7,4.5-2.4c0.7,13.9,1.4,27.8,2.2,41.7C88.7,377.8,88.6,379,89.6,379.9z"/>
<path class="st18" d="M132.6,57.1c1.3,5.7-3.2,9.4-5.1,13.9c-5,11.7,3.5,25.9,16.1,26c4,0,8,2.7,12,0.1c1.1-1,2.3-0.4,3.4,0
	c3.2,1.6,6.4,3,9.8,4.2c3.6,1.6,7.1,3.6,10.4,5.8c1.7,1.1,3.9,2.2,3.4,4.9c-1.8,0.3-3.1-0.9-4.5-1.7c-9.7-5.7-20.7-8.9-32-9.3
	c-2.1-0.1-4.3-0.2-6.3,0.8c-4.5,2.1-7.6-0.1-10.2-3.5c-3.7-4.6-7.5-9.2-8.7-15.3c-0.3-2.2-2.1-4-4.3-4.1c1.6-6.2,0.8-13,4.2-18.8
	c2.1,2.1-0.4,4.8,0.9,7.4c4.2-1,4.8-6,8.2-7.8L132.6,57.1z"/>
<path class="st19" d="M90.9,128c3.4,1.3,3,4.8,3.7,7.3c2.6,10,4.4,20.3,7.1,30.3c3,11.2,3.9,22.7,4.4,34.2c0,0.9-0.6,1.1-1.3,1.2
	c-3.7-2.6-2.2-6.7-2.9-10.1c-2.8-10-7.6-19.3-9.5-29.6C90.4,150.2,89.9,139.1,90.9,128z"/>
<path class="st20" d="M341.5,382.9c-8.1,0-8,0-9-8.1s-1.7-16.4-3.1-24.5c-0.9-5.2-3.4-10-6.3-14.5c-1.6-2.5-2.4,0-3.5,0.2
	c-0.6-0.5-0.6-1.4-0.1-2c0,0,0,0,0,0c-0.1-2.3,0-4.6,2.2-6.1c6,2,8.5,7.5,11.7,12.2c2.2,7.6,4.4,15.3,6.1,23
	C340.9,369.4,342.1,376.1,341.5,382.9z"/>
<path class="st21" d="M240.5,48.1c11.2-1.9,12.4-5,5.6-14.1c-2.8-3.7-6.4-6-10.4-7.9c4.5-2.6,8.3,0.1,11.9,2.1
	c10.1,5.6,16.5,14.8,22.3,24.4c1.3,2.1,2.5,4.2,3.7,6.3c-1.1,3.1-2.4,0.5-3.3-0.1c-2.2-1.5-3-4.3-4.7-6.3c-1.1-1.4-2.2-2.9-3.4-4.3
	c-3.2,7-6.9,8.7-14.1,6.9c-0.9-0.4-1.9-0.7-1.7-2C245.5,50.3,241.6,50.8,240.5,48.1z"/>
<path class="st22" d="M86.5,335c-5.5,3.3-6.8,9.1-7.8,14.7c-1.8,8.7-3,17.6-3.8,26.5c-0.4,6.1-3.2,7.4-8.3,6.8
	c-0.8-1.6-0.5-3.3-0.3-4.9c2.3-13.8,3-28,10-40.7c0.2-0.5,0.3-1,0.2-1.5c2.9-3.1,4.6-7.4,9-9C87,329.5,86.6,332.3,86.5,335z"/>
<path class="st23" d="M224.5,23.1c-8.4,3.6-16.7,7.6-25.9,9c-5.5-1.4-10.1,1.9-15.2,2.9c-12.9,2.4-25.1,7.2-38,13.6
	c2.2-3.9,5.2-4.2,7.4-5.7c1.8-1.1,1.2-1.7-0.5-2c9.9-6.8,21.4-9.6,32.9-11.7c11.9-2.2,23.9-3.6,35.5-6.9
	C221.9,22,223.7,20.8,224.5,23.1z"/>
<path class="st24" d="M303.3,197c-2.6,1-1.9-1.1-1.8-2.1c0.7-5.5,1.5-11.1,2.4-16.6c2-12.8,5.9-25.3,6-38.3
	c-0.2-3.3-0.6-6.5-1.3-9.7c-0.3-1.8-0.1-3.3,1.6-4.2c0.7,4,1.5,8,2.2,12c2.9,15.9-1.6,30.9-6.1,45.8c-0.9,3-1.3,6.1-1.9,9.2
	C305.6,194.8,304.9,196,303.3,197z"/>
<path class="st10" d="M248.5,54.1c7.9,2,12-0.9,12-9.1c3.8,2.9,6,6.4,8.2,9.8c1.2,1.9,1.9,4.5,5,4.1l7.1,10.9
	c-0.9,3.6-3.2,1.2-5,1.1c-8.4-3.6-16.2-8.5-24.1-13C250.2,57.2,248.1,56.5,248.5,54.1z"/>
<path class="st25" d="M76.6,335.9c1.5,4-1.2,7.4-2.5,10.5c-4.7,10.5-3.9,21.9-6.4,32.8c-0.3,1.3-0.6,2.5-1,3.8
	c-1.7,0.2-3.5-0.5-5,0.9c-0.8-0.3-1.7-0.7-1.5-1.7C64,366.1,66.3,349.6,76.6,335.9z"/>
<path class="st26" d="M341.5,382.9c-1.3-5.7-2.2-11.5-2.7-17.4c-0.5-5.2-2.6-10.5-4.2-15.6c-0.9-3.2-1.3-6.5-1.3-9.9
	c7.5,12.6,10.1,26.8,13.3,40.8c0.3,1.1,0.4,2.4-1.1,3C344.4,382.6,342.9,383.1,341.5,382.9z"/>
<path class="st27" d="M304.4,238.9c-1.9-1.1-3.9-0.9-5.9-0.9c-1.3-1.5-0.7-3.3,0-4.7c2.4-4.8,2.9-10.1,4-15.3
	c0.2-1.3,0.7-2.6,1.3-3.7c0.8-1.4,2-2.3,3.7-1.9c1.9,0.5,2,2,1.6,3.6c-0.4,1.3-0.3,2.6,0.2,3.9C307.8,226.2,307.9,233,304.4,238.9z"
	/>
<path class="st28" d="M110.6,238l-8.2,0.2c-3-5.7-3.3-12.2-4.6-18.3c0.2-0.5,0.3-0.9,0.4-1.4c0.6-1.6-1.5-4.6,1.6-4.7
	c2.3-0.1,3.9,2.2,4.3,4.7c0.7,3.9,2,7.6,3.8,11C107.9,232.6,112.1,234.4,110.6,238z"/>
<path class="st29" d="M309.3,219.9c-0.9-0.7-0.7-1.8-0.9-2.7c-0.2-1.4,0.9-3.8-1.7-3.9c-2.2-0.1-2.5,2.1-2.7,3.6
	c-1,7.3-3.5,14.1-5.6,21.1l-4,0.3l-0.5-0.5c0.2-4.1,2.3-7.6,3.6-11.3c0.8-1.3,0.5-3.2,2-4.2c0.7-3.7,1.3-7.4,2-11.2
	c3-4.8,4.8-5.4,8.7-3.1C311.1,212,309.7,215.9,309.3,219.9z"/>
<path class="st30" d="M129.7,59.8c-1.1,3.4-3.6,5.9-5.9,8.5c-0.7,0.8-1.6,2-2.9,1.3s-1.4-2.2-1.3-3.5c0.2-2,1.4-3.8,1-5.9
	c1.9-5.4,5.4-9.3,11.4-12.1C130.1,52.2,129,55.9,129.7,59.8z"/>
<path class="st31" d="M107.6,230c-3.6-2.1-3.5-6.3-4.2-9.5c-0.5-2.4-1.8-4.6-3.8-6.1c-1.9,1.6,0,4.1-1.8,5.5
	c-0.2-4-1.8-7.9-1.1-11.9c1.2-2.1,2.8-1.1,4.2-0.4c2.9,1.6,5.2,4.1,6.6,7.1c0.5,3.8,0.8,7.6,1.4,11.4
	C108.9,227.5,108.8,228.9,107.6,230z"/>
<path class="st32" d="M310.3,207.9c-3.9-1.7-6.1,1.2-8.7,3.1c-0.5-2.8,1.1-5.4,1.1-8.1c1.5-2.8,3.2-5.1,6.9-2.9
	C310.7,202.5,310.5,205.2,310.3,207.9z"/>
<path class="st33" d="M106.4,214c-2.9-2.5-4.7-7-9.7-6.1c-0.1-3-0.5-6.1,1.1-8.9c2-1.4,3.3-0.6,4.1,1.4c-1.6,2-1.8,3.8,0.9,5.1
	c1.4,0.7,2,2.1,2.7,3.5l1,2.1c0.8,0.7,0.9,1.9,0.2,2.7C106.7,213.8,106.5,213.9,106.4,214z"/>
<path class="st34" d="M101.6,201c-0.7-1.7-2.1-2.1-3.8-1.9c-0.7-3.7,4.3-4.7,4-8.2c1,3.4,1.9,6.8,2.9,10.1c0,0.7-0.1,1.3-0.1,2
	C102.8,203.5,102.1,202.5,101.6,201z"/>
<path class="st35" d="M309.5,200c-3-0.8-4.8,1.4-6.9,2.9c0.2-2,0.4-3.9,0.6-5.9c0.4-1.3,0.8-2.6,1.2-3.9
	C307.7,194.2,309,196.9,309.5,200z"/>
<path class="st36" d="M275.5,70c1.7-0.7,3.5,2.1,5.2-0.2c1.2,1.3,2.7,2.1,4.4,2.4c1.5,0.3,1.4,0.9,0.4,1.8l-0.3,0.1l-0.3,0
	c-3.5,0-7.2,1.1-10.3-1.6C273.9,71.4,274.5,70.6,275.5,70z"/>
<path class="st6" d="M319.5,322.9c0.5-6-1.1-12,1-17.9C320.1,310.9,321.4,317,319.5,322.9z"/>
<path class="st5" d="M318.5,351.9c-0.5,5.7,1,11.5-1,17l-0.1-10c0-2.3,0-4.7,0-7L318.5,351.9z"/>
<path class="st5" d="M319.5,334c0,0.7,0,1.3,0.1,2c-0.6,4.3,1,8.8-1,13l-0.1-1.1c-0.9-3-1.4-5.9,0-8.9
	C318.7,337.3,317.9,335.4,319.5,334z"/>
<path class="st4" d="M318.5,339v8.9C316.5,344.9,315.4,341.9,318.5,339z"/>
<path class="st6" d="M189.6,317c-1.7-9.5-8.7-11-16.8-12.3c-5.1-0.9-10-2.1-14.9-3.8c-3.4-1.1-6.6-2.4-10.1-1.9
	c-5.9,0.8-10.6-3.9-16.4-3.2c-4.7,0.5-8-2.5-12-3.7c-6.2-1.9-12.6-2.3-19-3c-6.7-0.7-8.9-2.5-10.7-8.9c-2.4-8.5-2.3-17.3-3.9-25.9
	c-0.3-1.6-0.1-3.4-2-4.2c0.4-0.8-1-3.7,1.7-1.6c1.5,1.3,2.4,3.3,2.3,5.3c-0.1,1.8,0,3.6,0.3,5.5c1.9,9.5,6.4,13,17.5,13.8
	c0.3,0,0.7,0,1,0c9.7,4,20.6,2.7,30.3,7.2c4.4,2,9.9,1.9,14.8,2.9c3.9,0.8,7.8,2,11.9,2.6c2.7,0.4,5.4,1.7,8.2,1.3
	c5.6-0.9,10.5,1.8,15.3,3.5c5.4,2,11,3,16.8,2.9c2.3,0,1.6,1.5,1.9,2.7c0.6,2.4-0.9,4.4-1.1,6.7c-0.6,1.8-2.1,2.3-3.7,2.5
	s-3.1,0.1-4.6,0.2c-3.6,0.6-4.7,3.3-5.2,6.4C190.6,313.6,191.1,315.5,189.6,317z"/>
<path class="st37" d="M203.6,301.9c-0.3-2.3,1.1-4,2-5.9c1.9-0.1,5-3.1,5,1.9l-2,3C207,301.9,205.7,303.7,203.6,301.9z"/>
<path class="st38" d="M189.6,317c0-5.3-0.9-10.9,6-13c5.9,7.4,13,13.7,20,20c-1.3,4.6-4.5,5.9-8.8,4.5c-2-0.8-4.3-0.6-6.2,0.5
	c-3.4,1.6-5.3-0.5-7-3l-1-1C192.2,322,189,320.2,189.6,317z"/>
<path class="st39" d="M215.6,324c-2.6,1.4-3.6-1.1-4.8-2.4c-4.5-4.8-9.3-9.4-14.3-13.7c-1.3-1.1-1.9-2.3-1-3.9h5
	c2.9,1.5,5.3-1.3,8-1c1.8,0,3.6-0.2,5.3,0.7c2.3,1.1,3.5,2.5,1.5,4.9c-2.8,3.4-3,6.9,0.4,10c2,1.8,1.3,3.5,0.7,5.3L215.6,324z"/>
<path class="st8" d="M193.6,326c2.2,1.4,3.9,3.7,7,3C196.9,331,194.7,329.9,193.6,326z"/>
<path class="st38" d="M208.6,303c-2.5,2.2-5.1,2.9-8,1c1.5,0,2.9,0,3.1-2.1l4.9-1C208.5,301.6,207.5,302.3,208.6,303z"/>
<path class="st40" d="M316.4,374.9v3c-4.6,3.5-9.8,4.1-15.4,4c-34.4-0.1-68.9-0.1-103.3-0.1c-8.8,0-17.5-1.3-26.3-1
	c-20.7,0.5-41.3,0.7-62,1.1c-7,0.1-13.7-0.9-19.7-4.9c0.5-8.3-1.7-16.5-0.9-26.2c2,4.3,2.9,9,2.8,13.7c-0.1,12.2,2.2,14.4,14.6,14.4
	c42,0,83.9-0.7,125.9,0.3c23.4,0.6,46.9-0.2,70.3,1.1C308,380.7,312.3,378.2,316.4,374.9z"/>
<path class="st41" d="M261.5,238h-41c-0.4-0.3-0.7-0.7-1-1.1c-2-3-2.8-7.2-6.8-8c-6-1.1-12.2-1.1-18.2,0c-2.2,0.4-3.5,2.3-4.6,4.2
	c-1,1.7-1.7,3.6-3.3,4.9h-34c-8.5-6-11.9-14.9-14.7-24.3c-0.6-1.5,0.1-3.2,1.5-3.8c0.3-0.1,0.7-0.2,1-0.2c3.1,4.1,8.4,5.8,11.6,9.8
	c1.5,1.8,3.3,1.1,5,1c7.2-0.5,14.4-1.4,21.5-2.8c0.8,0.8,0.7,1.8,0.9,2.8c0.5,3.1,2.4,3.3,4.8,2.1c3.4-1.8,6.2-4.5,8-7.9
	c2.1-3.4,3.6-7.1,4.7-11c0.5-2.1,1.4-4.1,2.8-5.8c2.7-3.2,5.1-3.2,7.8,0.1c2.4,3.1,3.2,6.9,4.4,10.5c1.5,4.6,4.1,8.8,7.7,12
	c1.6,1.5,3.4,3.3,6.1,2.3s0.7-3.6,1.8-5.2c1.7-1,3.3-0.5,4.7,0.4c4.5,3,9.6,1.5,14.3,2.6c0.6,0.1-0.1-0.9-0.2-0.2
	c-1.1-0.1-2.6-0.1-1.6-2c1.6-1.1,3.4-0.9,5.2-0.6c7.6,0.8,13.6-3.9,16.4-12.6c0.7-2.1,0.1-5.2,3.5-5.8c2.2,1.2,2.1,3.3,1.9,5.2
	c-1.3,10.5-3.6,20.8-8,30.5C263.2,236.3,262.4,237.2,261.5,238z"/>
<path class="st42" d="M261.5,238c2.7-7.1,5.8-14.1,6.8-21.6c0.7-5.4,4.1-10.7,1.1-16.3c-0.3-0.4-0.5-0.8-0.5-1.3
	c1-3.8-0.4-6.2-4-7.8c-2.3-1.2-4.7-2.2-7.2-3.1c-3.9-0.6-8-0.8-11.5-2.6c-4.5-2.3-8.8-5.1-12-9.2c2.6-2.7,6.2-4.3,10-4.3
	c4.3-0.1,8.6-0.4,11,4.5c0.9,1.9,2.6,1.8,4.1,0.4c1.2-1.1,2.8-1.8,4.5-1.7c2.7,0.3,5.4,0.8,8.1,1.1c2.5,0.8,3.7,2.8,4.3,5.1
	c2.7,10.4,4,20.9,1.6,31.5c-1.2,5.5-1.7,11.2-2.6,16.7c-1.1,7.1-1.1,7.1,6.2,7.3c1.8-0.1,3.5-0.1,5.3,0c2.7,0,5.5-0.5,7.8,1.4
	l0.1,0.3c-7.2,1.6-14.5,0.8-21.7,0.4C269.1,238.4,265.3,238.1,261.5,238z"/>
<path class="st43" d="M142.6,238h-7c-3.1-14-7.2-28-6.3-42.6c0.3-4.8,2-9.4,2.5-14.2c0.4-2,1.6-3.8,3.4-4.8c5.7-1.7,11.3-3.4,17-5.1
	c4.9-1.6,10.3-0.9,14.7,1.9c2.1,4.7-2,11.9-7.4,12.9c-3.4,0.6-6.8,1-10.2,1.6c-4.6,2.2-10.3,2.7-12.3,8.6c-0.7,0.8-1,1.8-0.9,2.8
	c3.1,11.5,2.3,23.7,6.6,35C143.3,235.4,143.6,236.8,142.6,238z"/>
<path class="st44" d="M132.6,238h-4c-2.5-4.6-2.5-9.6-2.5-14.6c-0.1-17.3-1.2-34.6-1-51.9c0.1-8.2-2.2-16.2-1.9-24.3
	c0.6-10.3,5.5-18.6,12.1-26.1c1.1-1.2,2.5-2.3,4.4-1.2c0.1,0.3,0.3,0.7,0.1,1c-5.7,7.8-3.7,16.3-2,24.7c1.3,6.3,3,12.6,1.6,19.1
	c-1.8,3.9-4,7.6-5,11.8c-2.2,1.1-2.9,3-3.2,5.3c-2.1,13.7-1.7,27.8,1.2,41.4c1.1,4,1.6,8.1,1.6,12.3
	C133.8,236.4,133.3,237.3,132.6,238z"/>
<path class="st45" d="M124.5,146c0.2,10.8,2.1,21.4,2.8,32.1c0.2,3.1-0.8,6.2-0.7,9.3c0.6,16.9,1.3,33.8,2,50.6h-6
	c-1.7-4.1-1.5-8.4-1.5-12.7c-0.1-12.9-0.1-25.8,0-38.8c0-3-0.1-6,1.9-8.5c0-6.7-2.6-13.2-1.9-20c0.3-3,0.3-5.9,1-8.8
	C122.5,147.9,122.5,146.2,124.5,146z"/>
<path class="st46" d="M186.6,238c2.7-9.5,4.7-11,14.3-11h5.5c9.8,0,11.5,1.3,14.2,11c-3,0.9-5.9,0.7-9.1,0.4
	c-5.8-0.7-11.8-1.1-17.6,0.4C191.3,239.4,188.9,238.5,186.6,238z"/>
<path class="st47" d="M123.5,177.9c-1.3,4.2-0.9,8.5-0.9,12.8c0,12.2,0,24.5-0.1,36.7c0,3.5,1.9,7.1,0.1,10.6h-4
	c-2.3-1.2-2.4-3.4-2.4-5.5c0-4.3-0.3-8.5,0.5-12.8c0.6-3.7,0.3-7.6-1.1-11.1c-0.8-2.9,0.1-5.6,0.6-8.4c0.8-5.6,1.2-11.2,1.1-16.9
	c0-2.4-0.1-5.2,3.5-5.5l1.7,0.1c0.2-0.3,0.6-0.4,0.9-0.2C123.4,177.8,123.5,177.9,123.5,177.9z"/>
<path class="st48" d="M142.6,238c-3.9-10.7-5.3-21.8-6-33c-0.2-1.5-0.7-2.9-1.4-4.1c-0.8-1.7-1.8-3.9,1.2-4.8c0.9,0.4,1.6,1.1,2,2
	c0.8,1.5,1.3,3.2,1.5,4.9c0.1,2.4,2.3,4.5,0.7,7.1c-2.6,1.1-1.7,3-1.2,5c2.4,8.8,7.5,16,13.1,23H142.6z"/>
<path class="st49" d="M132.6,238c-0.2-9.5-1.9-18.9-3.3-28.3c-0.9-6.4-0.9-12.8,0.1-19.1c0.4-3,0-6,0.5-8.8c0.4-2.2-1.2-7.3,4.5-5.7
	c0.7,0,1.2,0.5,1.3,1.1c-4.5,5.7-3.8,12.8-4.9,19.3c-1.2,7.6,1,15.1,2.2,22.6c1.1,6.2,3.7,12.3,2.6,18.9L132.6,238z"/>
<path class="st50" d="M116.6,209c2,3.4,2.1,7,1.6,10.8c-0.9,6.1-1.4,12.2,0.4,18.2h-6c-2.2-3.6-1.4-8-2.9-11.8
	c-0.4-2.4-0.3-4.7,1.9-6.3c2.6,0,1.5-2.3,2.1-3.6C114.8,213.9,113.4,210.5,116.6,209z"/>
<path class="st51" d="M110.3,225.8c2.7,3.7,2.2,8,2.3,12.1h-2c0.1-3.1-4.3-4.4-3-8c0.1-1.4,0.1-2.9,0.2-4.3
	C108.5,225.1,109.6,225.1,110.3,225.8z"/>
<path class="st52" d="M274.5,72c3.2,2,7.3-0.3,10.4,2.1c-1.7,2-4.1,2.4-6.4,3c-0.6,0.5-1.4,0.7-2.1,0.7c-2.7-0.6-5.5-0.8-8.3-0.5
	c-5.9,0.6-12,0-17.6-1.9c-1.5-0.5-3-1.4-5-0.5c3,4.1,7.5,4.8,11.7,5.5s8.6,1.1,12.7-0.5c2.6-1,4.9,0.6,7.3,0.3
	c1.8,0.5,3.8,0.9,3.5,3.3c-0.2,1.5-1.9,0.9-2.9,1.1c-6.8,1.1-13.4,3.2-20.3,3.9c-2.4,0.3-3.2,2-2.9,4.4s1.1,4.5,1.1,6.9
	c0,2.1,0.3,4.5-2.8,5c-2.1-0.2-3.1-1.7-3.9-3.4c-1.9-4.3-4.4-8.4-5.9-12.9c-3.3-8.3-7.7-15.8-14.6-21.6c-2.3-1.9-3.9-4.4-2.6-7.4
	s4.3-2.6,6.9-2.6c4.6,0,8.3,2.5,11.8,4.8c5.3,3.4,11,5.4,16.8,7.3c0.5,0.1,0.9,0.3,1.4,0.4c2.5,1.1,5.2,1.6,7.9,1.4
	C272.3,70.7,273.6,71.1,274.5,72z"/>
<path class="st53" d="M276.5,77l2,0.1c0.2,2.5,2.1,3.6,3.8,4.9c0.9,0.5,1.3,1.6,0.8,2.5c0,0,0,0,0,0c-0.3,0.8-1.1,1.3-2,1.1
	c-4.6-1.6-3.7,1.9-3.5,4.1c0.6,10.6,1.1,21.2,2.1,31.7c0.6,6.9,2.5,13.7,2.5,20.5c0.2,7.6-0.9,15.2-3.3,22.4c-0.3,1-1.3,1.6-2.3,1.6
	c-3.6-3.5-2-7.9-2.3-12c1.1-1.4,2.2-2.9,1.9-4.9c-1.1-6.5-1.5-13.1-3.2-19.6c-2-7.9-6-15.3-5.9-24c0.1-7.9,4.4-13.7,7.6-20.2
	c0.6-1.1,1.8-1.6,3-1.3c0.9-0.1,2.5,0.3,2.4-0.9c-0.1-1.6-1.9-1.9-3.4-2.1c-0.5,0-1-0.1-1.5-0.3c-1.2-0.7-3.4-1-2.8-2.9
	C273,75.7,274.9,76.5,276.5,77z"/>
<path class="st54" d="M274.7,154c2,3.8-0.1,8.2,1.8,12c-1.2,0.8-0.8,1.5,0,2.3c0.4,4.1,1.2,8.1,2.4,12c0.3,1,0.3,2.1,1,2.8
	c5,4.5,4.2,10.5,4.2,16.2c0,9.8,0,19.5,0,29.3c0,3.3,0,6.7-2.4,9.4c-9.8,0.3-9.3,0.3-7.8-9.6c1.6-10.9,4.7-21.6,3.8-32.8
	c-0.4-5-2-9.6-2.8-14.5c-0.2-1.6-0.9-3.7-3.3-3.9c0.2-3.1-1.2-6.2,0.2-9.3c1.5,0.2,1.5-0.8,1.5-1.9c0-4.3-0.9-8.5-1.5-12.8
	c-0.4-2.8-1.2-5.6,0.7-8.1c2.8,0.1,2.2,2.6,3.1,4.1C276,150.8,275.7,152.6,274.7,154z"/>
<path class="st55" d="M281.6,237.9c1.9-15,0.5-30.1,0.9-45.1c0.1-2.8-0.9-5.5-2.8-7.5c-4.1-4.8-3.5-11.1-3.3-17
	c1.9,1.8,0.4,4.8,2.1,6.7c0.2,0.2,0.4,0.5,0.5,0.8c1.6,4.7,1.6,4.8,5.6,2.1c2.1-1.4,3.4-0.9,3.8,1.5c0.5,2.9,0.1,5.9,0.4,8.9
	c-2.1,11.1,0.5,22.1,0,33.2c-0.3,5.5,0,11.2-2.4,16.5L281.6,237.9z"/>
<path class="st56" d="M286.5,143.4c0-3.4-0.1-6.8,0-10.2c0.4-13.8-0.6-27.4-5.6-40.5c-0.6-1.5-0.7-3.1,0.9-4s2.4,0.6,3.3,1.4
	c3.8,3.3,6.1,8.1,6.3,13.1c0.5,13,0.8,26.2-2.9,39c-0.2,0.4-0.4,0.9-0.7,1.3L286.5,143.4z"/>
<path class="st57" d="M296.5,145c1.9-0.2,2.8,0.5,2,2.5c-2.1,5.4-3.1,11.1-4.8,16.6c-2.3,7.4-3.4,15.1-3.2,22.8
	c-0.5,0.4-1.2,0.3-1.6-0.1c-0.6-6.5-3.1-12.9-0.5-19.5c-0.3-3,0.6-6,2.3-8.4C293.8,154.7,293.8,149.3,296.5,145z"/>
<path class="st58" d="M288.3,167.3c0,4.8,0.1,9.7,0.2,14.5c0,1.8-0.2,3.7,1.1,5.3c-0.5,0.6-1.4,0.6-1.9,0.1c0,0,0,0-0.1-0.1v-9.2
	c-2.3,0.4-3.1,2-4.2,3.5c-0.7,1-1.3,2.7-2.9,2c-1.3-0.6-2-1.9-1.9-3.3c0-1.7,0-3.3,0-5c3.3,1,5.2-0.9,6.7-3.4
	C286.2,170,286.4,168,288.3,167.3z"/>
<path class="st59" d="M110.3,225.8l-2.6-0.1c-1.2-3.8-0.9-7.8-1.3-11.7l0.1-3c0.8-1.1,1.9-1.1,3.1-1.1c2,0,2.1-0.9,2.8-2.8
	c2.6-7.3,0.9-14.8,2-22.2c0.8-5.6,0.2-11.3,0.2-17c1.6,1.7,2.7,3.9,3.1,6.2c1.6,5.9-0.1,11.9-0.3,17.8c-0.4,9.4-1.3,18.8-4.9,27.7
	C111.2,221.5,110.4,223.6,110.3,225.8z"/>
<path class="st60" d="M101.6,201l3,2c1.5,1.8,0.7,4,0.9,6c-1.7-0.9-2.8-2.8-4.9-3.2c-1.5-0.3-2-1.6-1.9-3
	C98.8,200.8,100.3,201.1,101.6,201z"/>
<path class="st61" d="M182.5,112.1c-3.4-5.2-9.5-6.4-14-9.9c-0.3-0.4-0.3-0.9,0-1.3c3.8-1.4,6.6,1.1,9.6,2.7c1.6,0.8,2.7,2.5,5.4,2
	c-1.7-6.2-4.7-12-8.8-17.1c-1.5-1.9-3.6-3.6-2.4-6.5c2.6-1.3,4.6,0.3,6.4,1.6c11.3,8.3,20.7,19,27.5,31.3c1.7,5.6,4.7,10.8,5.5,16.8
	c0,0.4,0.7-1.3,1.6-0.8c2.4,2.5,2.2,5.7,2.6,8.8c-0.1,1.9-0.1,3.8-1.6,5.3c-1,0.6-2,1-2.6-0.4c-1.5-5.8-6.4-9.4-9.6-14.1
	c-3.8-5.4-9.4-9.6-14-14.5C186.5,114.2,183.6,114.4,182.5,112.1z"/>
<path class="st62" d="M123.5,177.9l-1.1,0c0.1-1.7,0.7-3.5-0.8-4.9c-3.1-10.4-5.4-20.9-1.4-31.6c4.1-9.8,9.7-18.4,18.4-24.7
	c9.6-7,19.8-9.6,31.1-3.8c2.9,1.5,6.3,1.9,8.8,4.2c8.9,5.2,17.4,10.9,24,19c-2.1,1.4-3.3-0.4-4.7-1.4c-6.4-4.3-12.4-9.4-19.6-12.5
	c-7.3-3.4-15.2-5.7-23.2-6.8c-4.3-0.4-8.6,0.7-12.3,3c-1,0.6-2,1.4-3.2,1.5c-9.2,6.3-13.2,15.5-15,26c-2.7,7.7-2.3,15.7-1.5,23.5
	C123.4,172.3,123.5,175.1,123.5,177.9z"/>
<path class="st63" d="M178.6,117c-3.1-1-6.2-2-9.3-3.1c-14-5.2-26.6-1.9-36.5,9.6c-4.5,5.3-8.3,11.2-11.4,17.4
	c-1.5-0.1-1.5-0.9-0.8-1.9c1.6-7.1,3.4-14.2,9.5-19.1c1.3-1.1,2.3-2.4,2.9-3.9c3.2-7,10.7-11,18.3-9.8c8.8,1.5,17.4,4.2,25.4,8.1
	C177.8,114.7,179.4,115.2,178.6,117z"/>
<path class="st64" d="M141.6,118.1c6.4-5.7,14-4.5,21.1-2.6c9.9,2.6,19.4,6,27.7,12.5c3.7,2.9,7.6,6.2,12.2,8c3.6,2.2,5.2,6.6,9,8.6
	c0.5,0.5,1.3,0.7,2.1,0.5c1.4-0.1,1.4,0.8,1.3,1.8c-1.8,1.6-1.9,6.2-6.1,3.4c-7.3-9.9-16.5-18.1-27.1-24.3c-2.3-1.6-5-2.6-7.8-2.9
	c-6.4-1.6-12.6-4-19.3-4.7c-2.8-0.4-5.6-0.3-8.4,0.3C144.7,118.8,143,119.4,141.6,118.1z"/>
<path class="st65" d="M120.6,139c0.3,0.6,0.5,1.3,0.8,1.9c-3,8.8-1.3,17.8-0.4,26.7c0.2,1.8,0.4,3.6,0.6,5.4c-2.6-3.4-6-13.9-6-19
	c-0.1-3,0-6,0-9L120.6,139z"/>
<path class="st66" d="M287.6,187h2c0.3,0,0.6,0,0.9-0.1c0.8,0.4,1.2,1.2,1.1,2c1.7,2,1.2,4.4,1.2,6.7c0,10.1,1.1,20.1,1.8,30.1
	c0.2,2.7,1.4-0.4,2.1,0.1c0.8-0.1,1.5,0.4,1.7,1.2c-1.3,3.7-2.7,7.3-4,11l-7.9-0.1C289.2,221,285.1,203.9,287.6,187z"/>
<path class="st67" d="M298.5,227l-1.1-0.9c-2.3-1.7-2.5-4.3-2.8-6.7c-1.4-10-3.6-19.9-2.2-30.1c0.3-4.8,2.1-9.4,6.9-15.6
	c-2.3,16.2-1.4,32.4,0.4,48.5C299.3,223.8,300,225.6,298.5,227z"/>
<path class="st58" d="M292.4,189.2c-0.5,12.6,2.8,24.6,5,36.9c-0.2,0.2-0.5,0.4-0.7,0.7c-1.1,1.1-1,4-2.9,3.5
	c-2.5-0.8-0.3-3.1-0.4-4.7c-0.4-5.6-0.7-11.2-1.2-16.7c-0.7-6.6-0.4-13.2-0.6-19.8C291.8,189,292.1,189.1,292.4,189.2z"/>
<path class="st68" d="M122.5,119.6c-1.4,3.1-3.2,7.3-6.9,8c-3.4,0.6-5-3.6-5.9-6.7c-0.5-1.9,0.1-4-0.2-6c-0.3-2.3-1.1-4.8-4.1-4.8
	c-4.3,0-5.6-2.5-5.2-6c0.5-4.5,4.4-4,7.3-3.8C111.1,100.5,122.7,115.6,122.5,119.6z"/>
<path class="st69" d="M112.5,219.7c3.6-14.9,4.3-30.2,5.2-45.5l3,3.5c-1.3,0.5-2.1,1.8-2.1,3.1c0.6,9.5-1.4,18.7-2.1,28.1
	c-1.3,3.8-1.7,7.7-2.1,11.6c-0.1,0.7-0.3,1.9-1.4,1.4C112.6,221.7,112.7,220.5,112.5,219.7z"/>
<path class="st70" d="M172.6,82.1c0.3,2.4,1.9,4.1,3.4,5.9c3.7,4.5,6.4,9.6,8.1,15.2c0.4,1.3,1.7,2.9,0.4,4.1
	c-1.6,1.4-3.1-0.3-4.4-1.1c-3.6-2.3-7-4.8-11.5-5.1c-2.8,0.9-4.6-1.3-6.7-2.5c-4.1-3.2-9.2-4.5-13.8-6.7c-3.4-1.5-6.1-4.1-7.7-7.4
	c-1.4-3-2.8-6-4.1-9c-2.2-5-0.2-9.4,3-13.3c3.7-4.2,8.2-7.6,13.3-10.2c10.6-7,22-11.6,35-12c10.8-0.3,21.5,0,32,2.2
	c5.5,1.1,10.8,3,15.7,5.6c3.6,2,7.5,3.5,11.2,5.3c0.4,0.7,1.2,1.1,2,1c7.4,5.8,15.9,9.7,24.2,14.1c1,0.5,1.9,1.2,2.9,1.8
	c-0.3,0.7-0.6,1.3-1,2h-4c-2.6-0.9-5.4-1.1-8-2l0,0c-0.8-1.2-3.2,0.4-3.2-2c0.7-1,2-0.9,3.1-1.8c-9.7-4.9-19.1-9.6-28.6-14
	c-1.2-0.5-2.4-1.3-2.4,1c-1.2,0.6-2.3,0.1-3.3-0.4c-3.6-2.3-7.8-3.5-12.1-3.5c-1.3,0-2.8,0.1-3.3,1.6c-0.4,1.2,0.5,2.1,1.2,3.1
	c1.3,1.9,4.1,3.1,2.8,6.2c-6.4-0.5-14.4-7.1-14.8-12.6c-0.2-2.4-1.6-2.6-3.2-2.9c-17.5-2.9-33.4,0.6-47.2,11.9
	c-7.5,6.1-7.7,11.2-1.2,18c1.9,1.9,3.3,4.2,4.1,6.7c0.6,1.9,1,4.2,3.3,5.4c0.7-2.2-0.6-3.4-1.4-4.8c-3.2-5.6-2-9.6,3.8-12.4
	c5-2.4,10.4-2.2,15.7-1.4c17.3,2.8,33.7,9.9,47.5,20.8c7.6,5.8,14.9,12.3,19.8,20.9c0.2,0.3,0.4,0.6,0.6,0.8c2,2.2,3.1,6.2,6.1,6.1
	c3.3-0.1,1.7-4.8,3.7-6.8c1.4-0.4,1.7,0.6,2.1,1.6c0.3,2.1,0.7,4.3,1.4,6.3c0.7,1.7,1,3.5,1,5.4c0,3.4-0.5,7.5-3.7,8.6
	c-2.9,1-4.7-2.6-6.1-5c-6.1-9.9-12.3-19.8-20.8-28c-4-4-8.4-7.6-13.2-10.6c-0.4-0.2-0.8-0.5-1.2-0.8c-2.7-2-5.3-4.1-8.8-4.6
	c-3.2-1.3-6.2-3.3-9.6-4.1c-3.7-1.5-7.2-3.3-11.2-3.8c-0.5-0.1-0.9-0.2-1.3-0.4c-4.5-2.4-9.5-0.8-14.1-1.6c-1.4-0.2-2.7,0.8-3,2.1
	c-0.5,2,1.2,2.5,2.5,3.1c1.4,0.7,2.9,1.4,4.2,2.2C172.2,80.7,172.5,81.4,172.6,82.1z"/>
<path class="st71" d="M152.5,52c-3.9,3.5-8.3,6.5-11.9,10.4c-4.6,5.1-5.3,8.6-2.1,14.7c0.2,0.3,0.3,0.6,0.4,0.9
	c1.9,9.6,9.2,13.4,17.4,16.2c2.3,0.8,4.8,1.4,6.1,3.9c-1.2,0.7-2.8,0.7-4,0l-3-1c-1.4,0-2.8-0.3-4-1.1c-12-0.9-16.5-9.5-19.8-19.4
	c-1.7-5.2,0.8-9.5,4.3-13c2.6-2.8,5.4-5.3,8.5-7.6C147.3,54.8,149.1,51.9,152.5,52z"/>
<path class="st72" d="M144.6,56.1c-2.6,2.8-5.2,5.5-7.8,8.3c-4.7,5-4.7,9-2.6,15.3c3,8.9,9.1,13.6,17.4,16.4
	c-14.2,1.6-18.9-7.6-22.6-18.9c-1.3-3.9,1.8-7.9,4.2-11.3C136.1,61.7,140,58.4,144.6,56.1z"/>
<path class="st72" d="M158.6,98.1h4c1.7,1.6,3.7,2.6,6,3l-0.1,1C164.8,101.8,161.8,99.5,158.6,98.1z"/>
<path class="st73" d="M227.5,218c1.1,2.1,1.8,4.1-0.5,6c-2.2,1.7-3.9,0.7-5.8-0.6c-4.6-3.1-8-7.5-9.8-12.8c-1.2-3.3-2.2-6.6-3.5-9.9
	c-0.8-2-2.1-4.3-4.4-4.3s-3.5,2.4-4.3,4.4c-0.7,1.7-1,3.5-1.6,5.2c-2.5,6.7-5.3,13.3-11.9,17.2c-1.9,1.1-3.8,2.6-6,1s-1.8-4-1.1-6.3
	c0.1-2.5,2-2.2,3.7-2.4c0.5,0.2,0.9,0.4,1.3,0.7c2.5,2.3,3.6-0.3,4.7-1.6c2.6-3,3.6-6.7,4.2-10.5c0.8-5.9,1.2-11.9,1.2-17.9
	c0-6.8-2.9-10.9-9.1-13.3c-3.4-1.3-5.2-3.6-3-7.4c4.9-1.3,9.2,1,13.3,2.7c5.9,2.5,11.4,2.3,17.4,0.4c5.8-1.9,11.1-5,17.1-6.1
	c0.8,3.7-2.9,5.5-3.5,8.6c-10.4,3.4-13,11-12,21c0.7,7.1,0.2,14.3,3.9,20.7c1.6,2.8,3.5,5.4,7.4,3.4
	C226.2,216.3,227.2,217,227.5,218z"/>
<path class="st74" d="M182.5,216l-3.9,2c-8.1,4.1-17.1,2.5-25.6,4.2c-0.5,0.1-0.9,0-1.4-0.1c-0.9-6.6-10.4-5.4-11-12.1
	c-0.6-2.3-1.2-4.7-1.8-7c2.5-1.2,2.3,1.3,3.3,2.3c1.9,2.1,2.1,5.8,5.7,6.3c3.1,0.2,4,3.5,6.4,4.6c6,2.5,11.6,2.3,16.4-2.7
	c1-1,1.7-2.1,2.2-3.4c1.9-3.4,1.9-6.9,1.1-10.5c-0.3-0.9-0.7-1.7-1.1-2.5c-0.5-1.3-0.7-2.4,1.1-2.7c4.9,1.7,6.4,6.1,8,10.3
	c0.8,2.7,1.4,5.5,1.7,8.4C183.8,214.2,183.3,215.3,182.5,216z"/>
<path class="st75" d="M269.7,198.8c-0.1,0.4-0.2,0.9-0.3,1.3c-2,4.4-2.6,9.4-5.6,13.4c-2.8,3.7-8.7,6.6-13.3,5.6
	c1.2-2.9,4.9-3.2,6.3-5.9c2.5-3.9,4.4-7.8,2.9-12.6c-0.4-0.8-0.9-1.6-1.5-2.3c-1.4-1.4-1.8-3.4-3-5c-2.7-3.6-2.6-3.7,2.2-4.5
	c1.8,0.2,3.5,0.7,5.1,1.4C266,192.2,270.6,193.2,269.7,198.8z"/>
<path class="st76" d="M227.5,218l-1.9-1.1c-0.8-0.5-1.5-1.4-1.8-2.3c-0.5-2.2,0.6-4.4,0.5-6.6c1-5,2.5-9.8,7.5-12.4
	c0.5,0,1,0.2,1.2,0.7c0.7,3.5-1,7,0,10.5c0.2,0.4,0.3,0.9,0.4,1.3c0.9,3.4,3.2,6.2,6.2,7.9c0.7,0.5,1.5,0.9,2.3,1.3
	c1,0.5,2.1,0.7,2.6,1.9l3.8,1.5c-6.4,1.4-11.9,1.1-17.1-1.7C230.1,218.3,228.8,218,227.5,218z"/>
<path class="st77" d="M244.6,219.3c-1-0.4-2.4,0-3.1-1.2c2-1.9,4-1.5,6.4-0.4c-2.6-2.2-1.2-3.8,0.8-5.2c0.8-0.5,1.6-1,2.5-1.4
	c5.9-2.6,6.6-2.3,6.3,2.9c-1.3,3.1-4.6,3.4-6.9,5.1L244.6,219.3z"/>
<path class="st78" d="M225.5,208c0.8,2.5-1,4.6-0.8,7c-1.6,3.1-3.6,1.9-5.3,0.2s-3.4-3.9-3.7-6.4c-1.3-10.3-0.6-20.3,7.3-28.2
	c2.1-2.1,2.5-4.5,3-7c3.3-0.4,5.6,2.2,8.6,2.7c7.5,4.6,14.6,10.3,24,10.7c-0.5,0.6-1.2,1.1-2,1.2c-3,0.4-6,0.1-9,0.2
	c-10.5,0.4-18.4,6.3-22,15.9C225.2,205.5,224.6,206.7,225.5,208z"/>
<path class="st79" d="M234.6,176.2c-3.8,1.8-6.1-0.3-8.1-3.1c-1.5-0.1-1.6-0.9-1.1-2.1c-0.8-3.9,2.1-5.7,4.4-7.8
	c2.7-3.9,7.1-2.9,10.9-4.1c1.6-0.3,3.3-0.4,4.9-0.4c1.1,0,2.2,0.4,3.2,1c2,3.9,5,7.6,3,12.4c-2.4,0.9-5-0.3-7.3,0.8
	C240.8,172.9,237.8,175,234.6,176.2z"/>
<path class="st80" d="M271.4,168c1.3,3,2.6,6,0.1,9c-2.8,0.8-5.3-0.7-7.9-1.2c-2.6-1.6-6.6,1.2-8.4-2.8c2.9-3.1,1-7.5,2.7-10.9
	c0.5-0.6,1.2-1,2-1.1C264.8,161.9,269.2,163.1,271.4,168z"/>
<path class="st81" d="M255.4,173.2c2.5,1.9,6.2-0.1,8.4,2.7c-2.1-0.1-3.1,1.3-4.3,2.7c-1.4,1.7-3.3,2.1-4.2-0.3
	c-2-5.1-6-5.8-10.7-5.3c2.2-1.7,4.8-0.6,7.2-1C253.3,171,254.5,171.7,255.4,173.2z"/>
<path class="st82" d="M256.4,187.1l2.1-0.2c2.9,0.7,5.4,2.3,8.1,3.5c4.1,1.9,4.8,4.5,3.1,8.3c0.1-5-4.6-5.3-7.3-7.6
	C261.1,188.7,257.2,190.3,256.4,187.1z"/>
<path class="st83" d="M135.6,177.2l-1.3-1.1c-1.5-4.8,1.7-7.7,4.5-10.8c4-5.4,10.1-5.6,15.9-6.4c4.1-0.4,8.2-0.4,12.3,0
	c5.1,1.6,11,1.7,14,7.4c0,2.2,0.2,4.4,0.3,6.5c-2.7,5.4-4.8,6.2-10.1,4.1c-1.6-0.8-3.2-1.8-4.6-2.9c-7.7-3.6-15.1-1.4-22.4,1.3
	C141.5,176.5,138.6,177.1,135.6,177.2z"/>
<path class="st84" d="M166.6,174c1.6,0.3,3.2,0.8,4.6,1.5c4.1,2.4,7.1,1.6,9.3-2.6c1.4,3.3,3.4,6.4,5.8,9c6.5,7.2,8,23.1,3.4,31.1
	c-1.6,2.7-3.4,5.2-7.1,2.9h-0.1l0.2-3.1c0.5-3.7-0.2-7.4-1.9-10.7c-4.9-9.5-12.6-14.2-23.3-13.9c-2.3,0.1-4.7,0.1-7-0.2
	c-0.8-0.1-1.5-0.6-2-1.2c1.4-1.4,3.1-0.8,4.7-0.9c8.7-0.9,9-1.2,13.6-8.7C167.6,175.9,167,175.1,166.6,174z"/>
<path class="st85" d="M148.5,186.9l2.2,0.3c-0.7,3.2-4.9,1.9-5.9,4.6c-2.3,2.2-4.8,4.2-7.4,6l-1-1.8c-0.4-3.4,1.9-4.7,4.4-5.8
	C143.3,189.1,146,188,148.5,186.9z"/>
<path class="st86" d="M167.6,160.1c-10.1-1.1-19.8-0.1-28.8,5.1c-0.2-8.2-1.6-16.1-3.2-24.1c-0.6-3.1-1.4-6.2-1.3-9.3
	c0.2-4.5,2-8.8,5.2-11.9l2.1-1.9c11.6-3.4,22.3,0.4,33,4c4.1,1.4,8,3.5,11.3,6.3c0.7,0.5,1.1,1.1,0.6,2c-2.3,1.3-4-0.3-5.7-1.3
	c-1.5-0.9-3.1-1.7-4.8-2.3c-5-3.4-11-3.5-16.5-4.9c-4.6-1.2-6.8,0.5-7.9,5.2c-1.6,7.5,0.1,14.8,1.2,22.2c0.3,0.8,0.5,1.6,0.7,2.4
	c0.1,4.5,1.9,6.4,6.8,5.8C162.6,157,166.3,156.3,167.6,160.1z"/>
<path class="st87" d="M137.4,197.8c0.7-4.1,4.8-4.5,7.3-6.6c1.6-1.3,3.5-2.1,5.6-2.2c3.4,0,4.6,1.2,2,4c-4.6,4.8-6.3,10.3-3.9,16.7
	c0.1,0.8-0.2,1.5-0.7,2.1c-0.2,0.8-0.1,2.1-0.6,2.3c-1.1,0.4-1.7-0.7-2.1-1.5c-1.8-3.4-3.8-6.6-6.2-9.5
	C138.3,201.3,137.9,199.6,137.4,197.8z"/>
<path class="st36" d="M253.5,110.1c0,3.5,0.2,8.1-3.1,9.2c-2.5,0.8-4.7-3.5-6.4-6.1c-8.7-13.2-20.5-24-34.4-31.6
	c-13-7.2-26.7-12.4-41.9-12.5c-2.7,0-5.3,0.7-7.7,1.9c-4.8,2.4-5.6,5.8-2.8,10.2c0.9,1.2,1.6,2.5,2.2,3.9c0.4,1.2,1.7,3-0.6,3.8
	c-1.4,0.5-3-0.2-3.5-1.6c0-0.1-0.1-0.2-0.1-0.3c-1.5-6.5-6.2-11-9.7-16.3c-2.9-4.3,0-11.6,6.1-15.9c7.3-5,15-9.6,23.9-11.4
	c9-1.9,18-0.1,27,0.8c2.2,0.2,1.8,1.4,0.9,2.7c-1.6,2.3-0.8,4.3,1.1,5.6c3.9,2.7,8,5.1,12,7.6c4.3,0.1,7,3.4,10.3,5.5
	c7.8,6.1,13,14.1,17.6,22.7c2.3,5.5,4.5,11,7.9,16C254.2,105.8,255.2,107.7,253.5,110.1z"/>
<path class="st88" d="M253.5,110.1c-0.4-2-0.8-3.9-1.2-5.9c3.8-1.3,2.3-4.4,1.8-6.7c-2.6-11-1.8-9.7,9-11.3c3.3-0.5,6.5-0.5,9.5-2.4
	c1.6-1,3.4-1.3,5,0.3c-8.2,7.2-11,23.2-7.2,33.1c3,7.9,6,16,6.3,24.7c0.1,2.3,0.8,4.5,0.9,6.9s0.7,4.9-2.8,5.4
	c-0.1-1.7-0.2-3.3-0.3-5c-1-6.6-4.1-12.6-5.9-18.9c-2.3-5.4-6.3-9.4-10.8-13.1c-2-1-2.6-2.9-3.2-4.9L253.5,110.1z"/>
<path class="st89" d="M244.4,88.2c-2.5-1.6-3.5-4.3-4.7-6.8c-3.2-6.2-9.1-9.9-13.2-15.3c-1.9-1.1-3.1-2.9-5.1-3.9
	c-3.3-1.7-4.5-4.2-2.7-7.7s3.9-4.5,8-3c0.6,0.1,1.3,0.3,1.8,0.6l3,1c1.4-0.7,2.6,0,3.7,0.7c7.4,4.8,15.1,9.1,23.1,12.8
	c0.6,0.3,1,0.9,1.2,1.5l3,2c-6.2-0.7-11.6-3.5-16.9-6.4c-4.4-2.4-8.4-5.9-13.9-5.6c-1.9,0.1-4.3-0.5-5,2.1c-0.6,2.3,0.5,4.2,2.4,5.6
	C236.7,71.6,241,79.6,244.4,88.2z"/>
<path class="st15" d="M276.5,77c-1,0.1-1.9,0.1-2.9,0.3c-0.2,0-0.4,0.4-0.6,0.7c0.5,1.7,2.8,1.6,3.5,3c-8.5,0.1-17.1,2.9-25.5-0.9
	c-0.6-0.3-1.5-0.1-1.9-0.5c-2.2-1.8-6.9-2.9-5.7-5.8s5-0.6,7.5,0.2c6.2,2,12.7,2.6,19.1,1.7C272.3,75.3,274.6,75.8,276.5,77z"/>
<path class="st89" d="M262.5,70.1c2.9-0.1,5.6,0.1,8,2C267.7,72.2,264.9,72.1,262.5,70.1z"/>
<path class="st42" d="M271.4,168c-3.2-2.7-6.9-4.7-10.9-6.1c-0.6-0.6-0.8-1.4-0.8-2.3c1.1-6.4,0.3-12.9,0.1-19.3
	c-1-6.2-2.1-12.4-2.1-18.6c1.3-2,2.6-0.6,3.6,0.2c1.8,1.4,3.4,3,4.8,4.9c3.3,5.7,6.9,11.2,6.3,18.2c-0.6,8.3,3.2,16.3,1.8,24.8
	C272.9,170.2,272.8,168,271.4,168z"/>
<path class="st55" d="M272.5,145c-1.1-6.5-3.9-12.3-7-18c2.1-0.8,2.8,0.9,3.8,2.1c2.2,6.5,5.4,12.7,5,19.9
	C273,148,274.1,145.9,272.5,145z"/>
<path class="st90" d="M214.7,140l-2.2-9c-1.3-1.7-2.6-3.5-1.6-5.8c1.9-2.5,3.7-1.3,5.5,0.2c6.6,5,12.9,10.3,17.7,17.2
	c1.1,1.5,1.9,3.1,2.5,4.8c1.6,4.9,0.4,7.6-4.5,9.2c-2.8,0.9-5.7,1.6-8.7,2.2c-4,0.9-6-0.5-6.3-4.7c-0.2-3.3-0.8-6.6-1.6-9.8
	C215.7,142.8,215.3,141.3,214.7,140z"/>
<path class="st91" d="M172.6,82.1l-1-1c-1.6-1.6-2.4-3.4-0.4-5.2c1.6-1.8,4.3-2.2,6.4-1c4.8,2.7,10,4.8,13.8,8.8
	c7.2,7.6,14,15.6,19.2,24.8c0.6,2.6,3.1,4.6,2.1,7.7c-1.7,0.8-3.5,0.2-5.2,0c-0.7-0.2-1.4-0.5-2-1c-7-11.1-15.2-21.1-25.6-29.2
	C177.7,84.1,175.4,82.5,172.6,82.1z"/>
<path class="st92" d="M205.5,115.1h2.2c1.1,1.1,1.9,2.3,2.5,3.8c0.4,1,0.7,2,1,3c0.4,1,0.4,2.1,0.2,3.1l1.1,5.9
	c-0.6,1,0.8,3.1-1,3.1c-1.3,0-0.8-1.8-1-3c-0.5-3.4-2-6.7-3.3-10C206.5,119.2,205.5,117.3,205.5,115.1z"/>
<path class="st93" d="M214.7,140c1.1,0.5,1.9,1.7,1.8,3c-0.8,2.4,1.8,4.7,0.2,7.1c-2.3,0.1-2.4-1.4-2.1-3.1c0.2-0.8-0.2-1.6-0.9-2
	C214.7,143.5,214.4,141.7,214.7,140z"/>
<path class="st94" d="M186.5,130c-3.2-3.8-8.2-5-12-8c6.9,0.4,11.5,5.3,16.7,8.9c7.3,5.2,13.9,11.1,18.3,19l-0.5,0.4
	c-3,0.3-3.7-2.4-5.1-4c-2.6-3.2-4.9-6.6-8.8-8.5C192,135.6,188.1,134.1,186.5,130z"/>
<path class="st94" d="M214.6,147l2,3c0.3,0.4,0.4,1,0.2,1.5c-1,2-2.3,3.8-4.8,3c-1.9-0.6-3.4-1.9-2.5-4.4l0.1-0.1
	C212.8,151.7,212.2,146.9,214.6,147z"/>
<path class="st95" d="M209.6,109.1c-8.4-12.9-16.9-25.7-31.4-32.7c-2.1-1-3.9-1.4-6-0.1c-2.4,1.5-0.5,3.2-0.6,4.9
	c-1.5-0.1-3-0.8-4-2c-2.5-3.5-1.6-6.2,2.3-6.5c4.3-0.4,8.6,0,12.7,1.4l0,0c2.2,0.8,4.6,0.9,6.5,2.4c9.1,4.6,16.1,11.4,22.6,19.1
	c7.7,9.3,14.7,19,24.5,26.5c7.2,5.5,11.5,14,15.4,22.2c1,2,0.5,3.6-2,3.9c-4.2-3.5-6.8-8.1-9.2-12.9c-4.6-9.1-12.1-15.2-21.2-19.3
	C215.3,114.4,211.8,112.7,209.6,109.1z"/>
<path class="st96" d="M258.6,121.1l2.6,19.1c-1.3,2.6-0.4,5.2-0.3,7.8c0.1,1.8,0.4,4-2,4.5c-2.2,0.5-3.3-1.3-4-3
	c-2.4-6.9-5.4-13.5-9-19.9c-0.9-3.9-2.6-7.5-5-10.7c-7.1-10.2-14.5-20.1-24.7-27.5c-1.4-1-3.3-1.9-2.7-4.3
	c8.8,3.9,14.7,11,20.9,17.8c5.9,6.5,10.1,14.2,14.8,21.6c1.2,2,2.8,3.8,4.9,5c2.8-4.4,3.5-8.8,1.6-13.6c-0.9-1.8-1.2-3.8-1.1-5.8
	c0.9,1.7,2.2,3.1,3.9,4C257.9,117.8,259.6,119.4,258.6,121.1z"/>
<path class="st97" d="M213.5,87.1c2.5,3.2,6.1,5,9,7.7c9.2,8.6,17,18.6,23.1,29.5c0.8,1.5,1.1,3.1,0.9,4.8c-4.4,1.2-5.2-2.7-6.7-5.1
	c-4.7-7.5-10-14.6-15.9-21.1c-7.7-8.5-17-15.3-26.7-21.5c-1.1-0.7-2.4-1.3-2.9-2.6c0-0.2,0.1-0.5,0.2-0.7c3.9-0.1,6.7,2.5,10,4
	C207.9,83.1,210.6,85.3,213.5,87.1L213.5,87.1z"/>
<path class="st36" d="M259.5,68.1c-10.2-3.4-18.8-9.7-28-15c-0.5-0.8-0.9-1.7-2-3.6c6.9,2.9,13.1,5,18.7,8.1
	c3.9,2.1,7.9,4.2,11.8,6.2c1.8,0.9,5.1,0.8,4.7,3.3C264.4,69.1,261.3,67.7,259.5,68.1z"/>
<path class="st98" d="M228.6,52c-2.1,0.6-3.9-1.7-6.2-0.3c-3.8,2.5-4.2,7.3-0.4,9.9c1.8,1.2,3.5,2.4,4.6,4.4l-10-6
	c-0.3-2.8-2.8-3.9-4.3-5.8c-1-1.2-2.1-2.3-1.5-3.9c0.6-1.8,2.3-2.2,4-2.3C219.7,48,224.5,48.7,228.6,52z"/>
<path class="st97" d="M182.6,74.1c-3.7-0.3-7.4-0.9-11.1-0.9c-3.9,0-5.9,1.8-3.9,6c-2.6,0-5.1-1-4.6-3.8c0.3-2.4,2.5-4.1,4.9-3.8
	c0.3,0,0.7,0.1,1,0.3C173.3,73,178.5,70.1,182.6,74.1z"/>
<path class="st97" d="M188.6,77.1l-6-3c4.5-0.2,8.4,1.5,12,4l0,0C192.2,79.9,190.6,77.3,188.6,77.1z"/>
<path class="st96" d="M213.5,87.1c-3.5-0.7-6.1-3.1-9-5C208.4,82.2,211.1,84.4,213.5,87.1z"/>
<path class="st99" d="M216.5,151c0-0.3,0-0.7,0-1c1.1-2.4-2.2-4.7,0-7c1.5,3.5,2.2,7.3,2.1,11.1c-0.1,3,1.3,4.4,4.3,3.6
	c3.2-0.8,6.4-1.7,9.5-2.6c3.6-1,4.8-3,3.4-6.7c-3-8-9.3-13.1-15.4-18.5c-1.6-1.4-3.9-1.9-4.9-4c2.1-1.7,3.8-0.2,5.4,0.9
	c10.2,6.6,17.1,16,22.7,26.5c2.6,4.9,2.1,5.5-3.1,6.8l-10.8,3c-6.6,2.9-13.3,5.5-20.2,7.8c-4.4,1.6-9.2,1.4-13.5-0.6
	c-4.7-2-9.6-3.4-14.6-4.3c-0.3,0.5-0.7,0.5-1.1,0c-3.5-3.6-8.4-4.4-12.9-5.9c-2.2-1.7-5.1-2.4-7.9-1.7c-6.1,1.6-6.6-0.7-7.6-6
	c-1.2-7-2.5-13.8-2.6-20.9c0-0.7,0-1.3,0-2c0.8-9,4.7-11.4,13.3-8.4c4.6,1.6,9.9,1.1,13.7,4.9l-0.5,0.5c-1.3,0.7-2.6,0.4-3.9,0.3
	c-5.7-0.6-6.7,0.1-7.8,5.6c-2,9.4,2.5,17.2,11.6,20.2c4.6,1.5,9.1,3.2,13.4,5.3c4.9,2.5,10.1,3,15.5,2.8c3.9-0.2,4.3-1.2,2.4-4.6
	c-1.6-2.8-5-4.7-4.3-8.6c0.8-1.3,1.8-0.9,2.3,0c1.1,1.6,2.4,3.2,3.8,4.6C212.7,156.4,214.3,156.1,216.5,151z"/>
<path class="st100" d="M225.4,171l1.1,2.1c0.9,3.3,1,5.8-2.6,8.3c-7.5,5.2-10.3,26.2-4.5,32.1c1.8,1.8,3,2.8,5.2,1.4
	c0.3,0.7,0.6,1.4,0.9,2c-2.2,2.6-4.2,2.4-6.6,0c-5.1-4.8-5.5-11.2-6.2-17.3c-0.6-5.8-0.6-11.6,0-17.4
	C213.4,176.2,218,172.4,225.4,171z"/>
<path class="st101" d="M180.5,166.1h1.1c-0.4,3.2,0.5,5.1,4,6.3c5.7,1.9,9.2,5.4,9.2,12.5c0.2,7.1-0.2,14.1-1.3,21.1
	c-0.8,4.7-2.5,9-6.4,12c-2.2,1.7-4.5,2.2-4.4-1.9c5.2,0.7,7.1-3.3,7.5-6.8c0.7-7.5,1.8-15.1-2.1-22.3c-1.3-2.4-2.5-4.8-4.7-6.2
	c-3.1-2-3.5-4.6-2.8-7.8C180.5,170.6,180.5,168.3,180.5,166.1z"/>
<path class="st102" d="M147.5,210c-3.2-7.5-1.6-13.2,5.7-19.5c-0.6-1-1.8-0.4-2.6-0.8c4.1-3.4,8.9-1.8,13.3-1.2
	c3.9,0.6,8.2,1.4,9.7,6.2c-1.9,0.8,0.2,1.4,0.1,2.1c0.9,2.4-0.3,2.6-2.1,2c-1.3-0.4-2.1-1.6-3-2.5c-4.2-4-7.6-4.2-13.9-0.8
	c-1.1,0.9-2,2-2.6,3.2c-2,2.9-2.1,6-1.8,9.4C150.4,209.8,150.5,212.6,147.5,210z"/>
<path class="st103" d="M173.6,194.8c-6.6-6.6-14.6-6.7-23-5.1l-5.9,1.4c0.5-3.5,4.3-2.3,6-4c6.7-0.7,13.3-0.8,19.5,2.2
	c5.5,2.7,9.1,7.1,11.5,12.6c0.3,1.2,1.3,2.6-1,3C179.3,200.9,177.7,197,173.6,194.8z"/>
<path class="st104" d="M147.5,210c2,0.7,2.3-0.1,1.7-1.8c-1.4-3.6-0.5-7.6,2.2-10.3c1,0.3,1.7,1.2,1.7,2.2
	c-0.4,8.2,1.1,10.1,9.3,11.7c0.8,0.1,1.6,0.5,2.2,1c0.3,1.3-0.6,1.7-1.5,2.1c-2.3,0.6-4.5,0.1-7.1-0.3c-0.3-0.2,0.4,0.9,0.4,0.2
	c1.9,0.5,3,1.4,2,3.5c-1.8,0.3-3.2-1-4.9-1.2c-2.8-0.9-3.6-3.8-5.8-5.4C147.6,211.2,147.6,210.6,147.5,210z"/>
<path class="st105" d="M153.5,194.9c7.2-4.6,11.3-4.2,16.8,1.7c1,1,1.9,3.4,3.3,0.3c0.9,0.4,0.9,1.3,1,2.1c0.5,1.4,1.1,3.1-0.4,4
	c-1.3,0.8-2.4-0.7-3.3-1.3c0.8,2,1.7,4.2-1.3,5.6c-1.1-0.7-1.2-1.9-1.4-3c-1.4-7.2-3.6-8.9-11.2-8.1
	C155.8,196.1,154.5,196.1,153.5,194.9z"/>
<path class="st106" d="M162.7,214.1c0.8-0.1,1.5-0.4,1.8-1.2c0.2-2,1.7-2.3,3.3-2.7c2.5,0.1,3.7,1.6,4,3.9
	c-5.4,5.7-11.6,6.7-18.3,3.1c1.8-0.6,3.4,0.9,5.1,0.8c0.1-0.1,0.2-0.3,0.4-0.3C161.9,216.9,162.4,216.5,162.7,214.1z"/>
<path class="st107" d="M169.7,207.1c1.7-1.8,0.4-4.1,1.2-6.4c2.2,1.7,4.2,2.3,3.7-1.7c1.8,3.9,1.4,8.5-1,12.1
	c-1.8-0.3-3.6-0.7-5.4-1.3c-0.4-1,0.1-2.2,1.1-2.6C169.4,207.1,169.6,207.1,169.7,207.1z"/>
<path class="st108" d="M168.4,209.9c2.2-1.7,4.1-2,5.2,1.2c0.1,1.4-0.8,2.3-1.9,3.1c-1.5-1-2.1-3.4-4.4-3.3
	C167.3,210.2,167.7,209.8,168.4,209.9z"/>
<path class="st109" d="M180.7,204.9c1.5-0.6,0.6-2,1-3c2.1,3.5,2.8,7.1,1,10.9C182,210.2,181.3,207.6,180.7,204.9z"/>
<path class="st110" d="M257.5,189.9l-4.2,0.3c3.4,2.2,4.6,5.2,6.2,8c0.7,1.1,0.6,2-0.8,1.9c-1.2-0.1-1.9-1.3-2.6-2.1
	c-5-5.5-9.3-6.1-16.2-2.3c-0.6,0.7-1.1,1.5-1.7,2.3c-2.7,2.6-2.6,5.9-2.5,9.2c0,1.1-0.1,2.6-1.4,2.9s-0.9-1.5-1.8-1.9l0,0
	c-1.6-4,1.1-8,0-12.1l0.1-0.1c-0.3-2.7,1.8-4.2,3.5-4.9c6.4-2.4,13-3.9,19.9-2.8C256.8,188.4,257.6,188.7,257.5,189.9z"/>
<path class="st111" d="M257.5,189.9c-9.2-1.5-18-1.5-24.9,6.1c-4.4,2.8-6.1,7.2-7.1,12c-2-1.5-0.7-3.3-0.2-4.9
	c3-9.6,11.9-16,22.7-16.2c2.8-0.1,5.6,0.2,8.5,0.3c1.5,2.1,5.6,0.2,6,4L257.5,189.9z"/>
<path class="st112" d="M238.6,195.1c6.6-4.8,14.6-4.4,18.6,2.1c0.5,0.8,0.4,2.5,2.1,1.9c0.2-0.1,0.2-0.6,0.3-0.9
	c1,0.2,1,1.1,1.1,1.8c0.8,1.6,0.4,3.2,0.3,4.9c0,1-1.1,1.7-1.5,0.9c-1.9-3.5-2.4,0.9-3.6,0.6c-1-0.5-1.2-1.5-1.5-2.5
	c-2.4-7.3-4.2-8.5-12.1-7.5C240.9,196.2,239.6,196.2,238.6,195.1z"/>
<path class="st113" d="M255.4,205.9c2.1-0.7,0.4-3.1,1.8-4.1c1.8,0.3,1.9,2,3,3.6c0.2-2.1,0.3-3.8,0.4-5.5c1.9,5.3,0.4,9.9-3.1,14
	c-0.5-5.3-3.5-2.8-6-2C251.4,209.3,253,206.9,255.4,205.9z"/>
<path class="st114" d="M232.4,208.1c0.9,0.2,2.4,2.5,2.1-0.7c-0.4-3.8-0.6-7.6,2.7-10.4c1.5,0.8,1.7,2.2,1.7,3.7
	c-2.3,3.6,0.5,6.7,1,10.1c-0.6,1.8,0.7,3.1,1.3,4.6c0.7,1.8,0,2.5-1.8,1.7C235.7,215.2,233.1,212.4,232.4,208.1z"/>
<path class="st115" d="M239.5,217c3-0.7,0.7-1.8,0.1-2.5c-1.2-1.3-2.5-2.5,0.1-3.6c3.4,0.1,6.9,0.3,9.9,2.1c-0.8,1.4-5.1,2,0.5,5
	h-8.7C240.7,217.9,239.9,217.9,239.5,217z"/>
<path class="st114" d="M232.5,196c2.1,4-0.9,8,0,12.1C230.3,204.1,232.7,200.1,232.5,196z"/>
<path class="st116" d="M249.6,213c-3.5,0.1-7,0.4-10-2.1c-1-3.3-5.8-6.1-1-10c2.4-1,3.9-3.4,3.8-5.9c8.3-2,13,2,12.9,10.9
	c-0.9,2.2-2.2,4.3-3.9,6.1L249.6,213z"/>
<path class="st117" d="M241.5,135.4c2.7,4.2,5.4,8.3,8.2,12.5c1.8,0.7,3.3,2.2,4.1,4c1.6,3.2,3.9,6,6.8,8.1c0,0.6,0,1.3,0,1.9
	l-2.1,0.1c-3.4-0.4-6.9,0-10-2l-3.1-0.1c-0.1-0.7,0.1-1.3,0.6-1.8c-1-7-5.4-12.3-9.4-17.7c-7.1-9.5-16.6-16.1-27.2-21.3
	c-1-1-1.6-2.4-1.7-3.9c1.7-0.3,3.4,0,4.9,0.8c2.5-1.8,4.8-0.5,7.1,0.5C228.8,120.6,235.8,127.2,241.5,135.4z"/>
<path class="st118" d="M248.5,160c3.4,0.1,7.1-0.9,10,2c0,2.6-0.1,5.3,0,7.9c0.2,2.4-1.1,3.2-3.2,3.3l-3.8-1.3
	C252,167.6,248.6,164.2,248.5,160z"/>
<path class="st119" d="M246.4,158.9l-1,1l-4.8,0.3c3.6-1.2,3.7-3.3,2-6.4c-6-10.7-13.2-20.3-23.7-26.9c-1-0.6-2.1-0.9-3.3-0.9
	c-1.1-1.4-2.5-1.9-4.1-1c-1.2-0.7-0.8-1.9-1-2.9c1.8-1.8,2.6-1.9,5.4-0.2c5.6,3.3,10.7,7.3,15.4,11.8c6.6,6.5,11.1,14.4,15.3,22.5
	C247,157.1,247.5,158,246.4,158.9z"/>
<path class="st99" d="M186.5,130l9,7c2.7,2.8,7.1,4.3,7.1,9.1c-2,0.5-3.1-0.9-4.2-2c-5-5.7-11.3-9.5-17.7-13.3
	c-1.8-1.1-4.5-1.7-4.3-4.8l0,0C180.6,125.6,182.5,130.4,186.5,130z"/>
<path class="st120" d="M258.6,121.1c0.1-1.7-2.6-3.2-0.2-5c4.4,3.7,8.7,7.5,10.9,13l-3.8-2.1L258.6,121.1z"/>
<path class="st121" d="M260.5,160c-3.4,0.2-4.7-2.5-6.3-4.7c-1.7-2.3-3.1-4.9-4.6-7.4c1.3-0.7,2.1-1.5,1.1-3.1
	c-5.9-10.3-11.8-20.4-22.1-27.2c-5.9-3.9-9.3-10.3-13.6-15.7c-7.6-9.7-15.9-18.5-26.6-24.8l6,1c11.1,7.2,22.2,14.5,31,24.6
	c5.5,6.2,10.5,12.8,14.8,19.8c1.5,2.6,2.4,6,6.2,6.6c4.3,5.3,6.6,11.6,8.9,18c0.7,1.9,0.9,5.1,3.5,4.4s1.6-3.5,1-5.5s-1-4.2,1.3-5.7
	C260.9,146.8,263.7,153.5,260.5,160z"/>
<path class="st122" d="M241.5,135.4c-5.5-5.5-10.6-11.4-17.4-15.5c-3.6-2.2-7.3-3.9-11.6-4c-1-2.3-2-4.6-3-6.9
	c8.5,6.4,19.6,9,26.4,17.9C238,129.6,240.9,131.8,241.5,135.4z"/>
<path class="st123" d="M246.4,158.9c-6.4-15.7-16.8-28.1-31.6-36.5c-1.1-0.6-2.9-2.2-4.4-0.3c-1.1-0.8-0.9-2-1-3.1
	c2.2,0,4.3,0.6,6.2,1.7c14.1,8.1,25.2,20.3,31.9,35.1C248,157.1,249.4,158.8,246.4,158.9z"/>
<path class="st93" d="M202.6,146c-0.8-4.2-5.3-5.5-7-9c5.1,1.6,7.1,6.5,10.3,10c1.1,1.2,1.6,2.9,3.5,3.1c2.5,4.8,2.9,4.8,7.1,0.9
	c-0.2,1.9,0.9,4.4-1.7,5.2c-2.5,0.7-4.4-1-6-2.7c-1.8-2.1-3-4.7-5.3-6.4C203,146.9,202.6,146.5,202.6,146z"/>
<path class="st124" d="M202.6,146l1,1c-0.2,3.6,2.9,5.4,4.6,8c1,1.7,2.9,3.2,2.1,5.3c-0.9,2.5-3.3,1.6-5.2,1.7
	c-6.6,0.4-13.3-1.1-19.1-4.2c-3.8-2-7.9-3.5-12.1-4.5c-9.4-2-14.1-16.5-9.2-26.2c1-2,2.8-2.2,4.6-2c2.5,0.2,4.9,0.6,7.3,1
	c2,2.8,5.1,4.1,8,5.5C191.6,135.1,196.7,141,202.6,146z"/>
<path class="st125" d="M153.5,194.9l3.7,0.2c2.9,1.4,2.6,3.6,0.9,5.5s-4.1,2.5-5.9-0.4l-0.9-2.2
	C151.7,196.7,152.5,195.6,153.5,194.9z"/>
<path class="st126" d="M152.3,200.2c1.8,1.3,3.6,1.6,5.3-0.2c1.6-1.7,0.6-3.3-0.3-4.9c6.1-2.3,13.8,1.3,12.4,12
	c-0.4,1-0.9,1.9-1.3,2.8l-1.1,1l-2.9,2C154.2,213.3,150.1,208.9,152.3,200.2z"/>
<path class="st127" d="M162.7,214.1c2,4.9-1.4,4-4.1,3.8l-3.5-4.4L162.7,214.1z"/>
<path class="st128" d="M242.5,195c2,4.8,1.3,5.9-3.8,5.9c-1-1.1-1.5-2.5-1.4-4l1.3-1.9L242.5,195z"/>
</svg>
